<svg width="340" height="200" viewBox="0 0 340 200" fill="none" xmlns="http://www.w3.org/2000/svg">
<g clip-path="url(#clip0_117_63)">
<path d="M259.121 197.738C254.838 194.119 252.237 188.402 252.919 182.837C253.601 177.272 257.827 172.155 263.308 170.973C268.789 169.792 275.037 173.063 276.702 178.417C277.618 168.095 278.674 157.339 284.162 148.548C289.132 140.589 297.739 134.893 307.067 133.874C316.396 132.855 326.217 136.704 332.035 144.066C337.852 151.429 339.277 162.133 335.202 170.586C332.201 176.813 326.671 181.447 320.877 185.217C302.154 197.297 279.699 202.21 257.642 199.051L259.121 197.738Z" fill="#F2F2F2"/>
<path d="M322.81 136.917C315.113 143.186 308.052 150.198 301.729 157.851C291.833 169.786 283.825 183.168 277.984 197.53C277.557 198.578 279.258 199.034 279.681 197.998C289.237 174.657 304.494 154.084 324.054 138.161C324.933 137.446 323.681 136.208 322.81 136.917Z" fill="white"/>
<path d="M110.689 196.755C116.572 191.784 120.145 183.932 119.208 176.288C118.271 168.644 112.467 161.617 104.939 159.993C97.4105 158.37 88.8287 162.864 86.5421 170.218C85.2837 156.039 83.8336 141.267 76.2954 129.193C69.4699 118.26 57.6479 110.437 44.8355 109.037C32.0231 107.638 18.5333 112.924 10.5426 123.036C2.55201 133.149 0.595535 147.851 6.19196 159.461C10.3146 168.014 17.9101 174.379 25.8682 179.557C51.2574 196.078 82.7527 202.968 112.721 198.558" fill="#F2F2F2"/>
<path d="M23.2126 113.217C33.7844 121.828 43.4829 131.458 52.1679 141.969C60.8542 152.47 68.5016 163.788 75.0026 175.764C78.6364 182.483 81.9007 189.395 84.7809 196.469C85.3682 197.908 83.0314 198.534 82.4507 197.111C77.349 184.639 71.0373 172.697 63.6061 161.457C56.2109 150.257 47.7468 139.8 38.3325 130.235C33.0078 124.827 27.3897 119.716 21.5038 114.926C20.2974 113.943 22.0161 112.242 23.2126 113.217Z" fill="white"/>
<path d="M243.128 199.562H102.781V55.5621C102.781 24.925 127.706 0 158.343 0H187.566C218.203 0 243.128 24.925 243.128 55.5621V199.562Z" fill="#F2F2F2"/>
<path d="M213.905 199.562H102.781V55.5621C102.75 43.8226 106.468 32.3799 113.392 22.8999C113.647 22.552 113.902 22.2086 114.164 21.8689C117.514 17.4763 121.499 13.6078 125.99 10.391C126.243 10.2065 126.498 10.0251 126.757 9.84373C130.514 7.24342 134.579 5.11773 138.858 3.51503C139.112 3.41871 139.371 3.3222 139.63 3.22964C143.5 1.8485 147.512 0.902424 151.591 0.408884C151.844 0.374335 152.104 0.347301 152.363 0.320265C156.339 -0.104802 160.348 -0.104802 164.324 0.320265C164.583 0.347301 164.842 0.374332 165.098 0.409253C169.177 0.902826 173.188 1.84879 177.057 3.22966C177.316 3.32222 177.574 3.41872 177.829 3.51523C182.056 5.09771 186.072 7.19169 189.79 9.75042C190.048 9.92784 190.307 10.1092 190.561 10.2906C193.079 12.0873 195.443 14.089 197.63 16.2751C199.384 18.0287 201.019 19.8979 202.523 21.8701C202.785 22.2086 203.039 22.552 203.294 22.8993C210.218 32.3795 213.936 43.8224 213.905 55.5621V199.562Z" fill="#CCCCCC"/>
<path d="M204.869 135.156C208.267 135.156 211.021 132.402 211.021 129.004C211.021 125.606 208.267 122.852 204.869 122.852C201.471 122.852 198.717 125.606 198.717 129.004C198.717 132.402 201.471 135.156 204.869 135.156Z" fill="#33C060"/>
<path d="M231.631 195.249H226.917L224.674 177.066L231.632 177.067L231.631 195.249Z" fill="#FFB8B8"/>
<path d="M223.55 193.902H232.641V199.626H217.825C217.825 198.875 217.973 198.13 218.261 197.436C218.549 196.741 218.97 196.11 219.502 195.579C220.033 195.047 220.665 194.625 221.359 194.338C222.053 194.05 222.798 193.902 223.55 193.902Z" fill="#2F2E41"/>
<path d="M255.086 195.249H250.372L248.129 177.066L255.087 177.067L255.086 195.249Z" fill="#FFB8B8"/>
<path d="M247.005 193.902H256.096V199.626H241.281C241.281 198.875 241.429 198.13 241.716 197.436C242.004 196.741 242.426 196.11 242.957 195.579C243.489 195.047 244.12 194.625 244.814 194.338C245.509 194.05 246.253 193.902 247.005 193.902Z" fill="#2F2E41"/>
<path d="M207.983 130.223C207.644 129.723 207.418 129.155 207.322 128.559C207.227 127.963 207.263 127.353 207.428 126.772C207.593 126.191 207.884 125.654 208.279 125.197C208.675 124.741 209.166 124.377 209.717 124.131L225.742 79.9633L233.627 84.2665L215.33 126.475C215.682 127.429 215.672 128.478 215.302 129.425C214.932 130.372 214.227 131.15 213.321 131.612C212.416 132.074 211.372 132.188 210.388 131.932C209.404 131.676 208.548 131.068 207.983 130.223Z" fill="#FFB8B8"/>
<path d="M252.678 138.522C252.154 138.222 251.703 137.81 251.355 137.316C251.007 136.823 250.772 136.259 250.666 135.664C250.56 135.07 250.586 134.459 250.741 133.876C250.897 133.292 251.178 132.75 251.566 132.287L246.601 85.5647L255.575 85.9747L257.638 131.932C258.373 132.635 258.824 133.583 258.907 134.596C258.989 135.609 258.697 136.618 258.085 137.43C257.474 138.242 256.586 138.802 255.589 139.004C254.593 139.205 253.557 139.034 252.678 138.522Z" fill="#FFB8B8"/>
<path d="M238.363 71.7822C243.578 71.7822 247.807 67.554 247.807 62.3382C247.807 57.1224 243.578 52.8942 238.363 52.8942C233.147 52.8942 228.919 57.1224 228.919 62.3382C228.919 67.554 233.147 71.7822 238.363 71.7822Z" fill="#FFB8B8"/>
<path d="M252.618 127.896H224.146L224.18 127.675C224.231 127.343 229.255 94.4377 225.55 83.6725C225.178 82.6146 225.211 81.4566 225.642 80.4213C226.072 79.3861 226.871 78.5468 227.883 78.065C233.179 75.5713 243.344 72.5006 251.923 79.9526C253.186 81.0672 254.172 82.4603 254.803 84.0217C255.434 85.583 255.694 87.2698 255.561 88.9487L252.618 127.896Z" fill="#33C060"/>
<path d="M229.614 99.3007L216.796 96.7002L222.804 82.4617C223.164 81.0827 224.056 79.9025 225.284 79.1801C226.513 78.4577 227.978 78.2521 229.358 78.6084C230.738 78.9646 231.92 79.8536 232.645 81.0804C233.371 82.3072 233.58 83.7716 233.227 85.1524L229.614 99.3007Z" fill="#33C060"/>
<path d="M246.032 104.129L245.261 86.4641C244.677 83.1434 246.578 80.0042 249.501 79.4911C252.425 78.9798 255.281 81.283 255.868 84.6281L258.765 101.134L246.032 104.129Z" fill="#33C060"/>
<path d="M251.671 125.781C256.252 143.229 256.752 165.413 255.516 189.611L249.364 188.841L238.213 142.7L232.061 189.611L225.139 189.226C223.072 163.837 221.058 142.04 224.37 127.704L251.671 125.781Z" fill="#2F2E41"/>
<path d="M244.585 69.6368C242.823 71.5135 239.552 70.5061 239.322 67.9422C239.304 67.7432 239.305 67.5428 239.326 67.344C239.444 66.2083 240.1 65.1773 239.943 63.9781C239.908 63.6797 239.797 63.3953 239.62 63.1519C238.216 61.2719 234.921 63.9927 233.596 62.2908C232.783 61.2473 233.738 59.6042 233.115 58.4378C232.292 56.8984 229.855 57.6578 228.326 56.8147C226.625 55.8767 226.727 53.2675 227.847 51.6804C229.212 49.745 231.606 48.7122 233.969 48.5633C236.333 48.4145 238.681 49.0535 240.888 49.9135C243.395 50.8907 245.882 52.2412 247.425 54.446C249.301 57.1273 249.482 60.732 248.543 63.8672C247.972 65.7744 246.024 68.1043 244.585 69.6368Z" fill="#2F2E41"/>
<path d="M325.984 199.81H42.1002C41.979 199.809 41.8629 199.761 41.7773 199.675C41.6917 199.589 41.6437 199.473 41.6437 199.352C41.6437 199.231 41.6917 199.114 41.7773 199.028C41.8629 198.943 41.979 198.894 42.1002 198.894H325.984C326.105 198.894 326.221 198.943 326.307 199.028C326.392 199.114 326.44 199.231 326.44 199.352C326.44 199.473 326.392 199.589 326.307 199.675C326.221 199.761 326.105 199.809 325.984 199.81Z" fill="#3F3D56"/>
<path d="M183.337 157.843H133.35C132.692 157.846 132.059 157.588 131.59 157.126C131.122 156.663 130.856 156.034 130.851 155.376V43.8019C130.856 43.1436 131.122 42.5142 131.59 42.0517C132.059 41.5893 132.692 41.3316 133.35 41.3351H183.337C183.995 41.3316 184.628 41.5893 185.096 42.0517C185.565 42.5142 185.831 43.1436 185.836 43.8019V155.376C185.831 156.034 185.565 156.663 185.096 157.126C184.628 157.588 183.995 157.846 183.337 157.843Z" fill="white"/>
<path d="M185.836 77.4369H130.851V78.2059H185.836V77.4369Z" fill="#CCCCCC"/>
<path d="M186.028 121.314H131.043V122.083H186.028V121.314Z" fill="#CCCCCC"/>
<path d="M148.923 41.3351H148.154V158.227H148.923V41.3351Z" fill="#CCCCCC"/>
<path d="M168.148 41.3351H167.379V158.227H168.148V41.3351Z" fill="#CCCCCC"/>
</g>
<defs>
<clipPath id="clip0_117_63">
<rect width="334.526" height="200" fill="white" transform="translate(3)"/>
</clipPath>
</defs>
</svg>
