<svg width="340" height="200" viewBox="0 0 340 200" fill="none" xmlns="http://www.w3.org/2000/svg">
<g clip-path="url(#clip0_39_699)">
<path d="M326.945 200C357.33 146.255 299.052 118.729 291.55 175.483C291.17 168.159 290.768 160.717 288.335 153.798C284.64 139.446 264.563 129.045 254.974 143.574C249.904 152.577 256.627 165.205 250.797 173.736C247.12 152.266 215.947 157.303 219.229 178.844C221.694 189.194 232.628 195.217 241.357 199.899L326.945 200Z" fill="#F2F2F2"/>
<path d="M223.695 165.84C239.118 170.844 258.393 179.275 259.957 197.701C260.001 198.431 261.145 198.436 261.099 197.701C260.7 191.194 257.529 185.24 253.138 180.531C248.325 175.369 242.086 171.843 235.646 169.107C234.387 168.816 221.279 162.615 223.695 165.84Z" fill="white"/>
<path d="M262.661 138.889C273.335 156.713 278.414 177.33 277.241 198.072C277.198 198.806 278.341 198.804 278.383 198.072C279.293 181.769 276.39 165.478 269.904 150.493C269.175 149.152 263.299 135.029 262.661 138.889Z" fill="white"/>
<path d="M318.598 145.454C311.073 162.372 306.416 180.424 304.816 198.87C304.752 199.603 305.895 199.598 305.958 198.87C307.203 184.646 310.277 170.642 315.105 157.205C315.091 155.708 321.679 143.56 318.598 145.454Z" fill="white"/>
<path d="M186.215 199.076C194.912 183.691 178.23 175.811 176.082 192.058C175.974 189.961 175.858 187.831 175.162 185.85C174.104 181.741 168.357 178.764 165.612 182.923C164.161 185.5 166.085 189.115 164.416 191.557C163.364 185.411 154.44 186.853 155.38 193.02C156.085 195.982 159.215 197.706 161.714 199.047L186.215 199.076Z" fill="#F2F2F2"/>
<path d="M156.658 189.297C161.073 190.73 166.591 193.143 167.038 198.417C167.051 198.626 167.378 198.628 167.366 198.417C167.197 196.565 166.392 194.828 165.087 193.502C163.664 192.074 161.959 190.96 160.079 190.232C159.719 190.149 155.967 188.374 156.658 189.297Z" fill="white"/>
<path d="M167.813 181.582C170.868 186.684 172.322 192.586 171.986 198.524C171.974 198.734 172.301 198.733 172.313 198.524C172.574 193.857 171.743 189.193 169.886 184.904C169.677 184.52 167.995 180.477 167.813 181.582Z" fill="white"/>
<path d="M183.825 183.461C181.671 188.304 180.338 193.472 179.88 198.752C179.861 198.962 180.189 198.961 180.207 198.752C180.563 194.681 181.443 190.672 182.825 186.825C182.821 186.397 184.707 182.919 183.825 183.461Z" fill="white"/>
<path d="M130.464 8.4606H4.44529C4.3272 8.4606 4.21393 8.41368 4.13042 8.33017C4.04691 8.24666 4 8.1334 4 8.0153C4 7.8972 4.04691 7.78394 4.13042 7.70043C4.21393 7.61692 4.3272 7.57001 4.44529 7.57001H130.464C130.582 7.57001 130.695 7.61692 130.778 7.70043C130.862 7.78394 130.909 7.8972 130.909 8.0153C130.909 8.1334 130.862 8.24666 130.778 8.33017C130.695 8.41368 130.582 8.4606 130.464 8.4606Z" fill="#3F3D56"/>
<path d="M104.547 15.14C108.728 15.14 112.117 11.7508 112.117 7.57001C112.117 3.38921 108.728 0 104.547 0C100.366 0 96.9772 3.38921 96.9772 7.57001C96.9772 11.7508 100.366 15.14 104.547 15.14Z" fill="#33C060"/>
<path d="M130.464 36.9594H4.44529C4.3272 36.9594 4.21393 36.9125 4.13042 36.829C4.04691 36.7455 4 36.6322 4 36.5141C4 36.396 4.04691 36.2828 4.13042 36.1993C4.21393 36.1158 4.3272 36.0688 4.44529 36.0688H130.464C130.582 36.0688 130.695 36.1158 130.778 36.1993C130.862 36.2828 130.909 36.396 130.909 36.5141C130.909 36.6322 130.862 36.7455 130.778 36.829C130.695 36.9125 130.582 36.9594 130.464 36.9594Z" fill="#3F3D56"/>
<path d="M34.1906 43.6389C38.3714 43.6389 41.7606 40.2496 41.7606 36.0688C41.7606 31.888 38.3714 28.4988 34.1906 28.4988C30.0098 28.4988 26.6206 31.888 26.6206 36.0688C26.6206 40.2496 30.0098 43.6389 34.1906 43.6389Z" fill="#33C060"/>
<path d="M130.464 65.4583H4.44529C4.3272 65.4583 4.21393 65.4114 4.13042 65.3279C4.04691 65.2444 4 65.1311 4 65.013C4 64.8949 4.04691 64.7816 4.13042 64.6981C4.21393 64.6146 4.3272 64.5677 4.44529 64.5677H130.464C130.582 64.5677 130.695 64.6146 130.778 64.6981C130.862 64.7816 130.909 64.8949 130.909 65.013C130.909 65.1311 130.862 65.2444 130.778 65.3279C130.695 65.4114 130.582 65.4583 130.464 65.4583Z" fill="#3F3D56"/>
<path d="M64.0253 72.1377C68.2061 72.1377 71.5953 68.7485 71.5953 64.5677C71.5953 60.3869 68.2061 56.9977 64.0253 56.9977C59.8445 56.9977 56.4553 60.3869 56.4553 64.5677C56.4553 68.7485 59.8445 72.1377 64.0253 72.1377Z" fill="#33C060"/>
<path d="M188.158 69.9854C188.314 70.1975 188.454 70.4217 188.575 70.6558L212.045 73.2948L215.458 68.6829L223.092 72.9247L216.372 84.1272L187.618 76.5809C186.887 77.2843 185.958 77.7483 184.956 77.9112C183.954 78.0741 182.927 77.9281 182.01 77.4927C181.093 77.0573 180.33 76.353 179.824 75.4737C179.317 74.5943 179.09 73.5815 179.172 72.5699C179.255 71.5582 179.644 70.5958 180.287 69.8106C180.93 69.0253 181.797 68.4544 182.772 68.1739C183.748 67.8933 184.786 67.9164 185.748 68.24C186.71 68.5635 187.55 69.1723 188.158 69.9854Z" fill="#FFB8B8"/>
<path d="M221.424 76.9367C221.235 76.8536 221.058 76.7438 220.901 76.6105L211.468 68.6644C211.241 68.4734 211.057 68.2374 210.926 67.9714C210.795 67.7055 210.721 67.4152 210.708 67.119C210.695 66.8228 210.743 66.5272 210.85 66.2508C210.958 65.9744 211.121 65.7232 211.33 65.5132L219.89 56.9181C220.249 56.5542 220.728 56.3316 221.238 56.291C221.747 56.2504 222.255 56.3944 222.667 56.6969L229.141 61.3975C229.545 61.6911 229.833 62.1164 229.957 62.6002C230.081 63.084 230.032 63.5959 229.819 64.0475L224.219 75.8877C223.98 76.3914 223.555 76.7825 223.034 76.9783C222.512 77.1741 221.934 77.1592 221.424 76.9367Z" fill="#33C060"/>
<path d="M258.215 189.32L252.581 190.853L243.988 169.852L252.302 167.59L258.215 189.32Z" fill="#FFB8B8"/>
<path d="M247.675 190.458L258.984 187.38L260.846 194.221L243.14 199.039L243.019 198.595C242.557 196.898 242.789 195.088 243.662 193.562C244.535 192.036 245.978 190.919 247.675 190.458Z" fill="#2F2E41"/>
<path d="M210.053 193.619L204.215 193.619L201.437 171.099L210.055 171.099L210.053 193.619Z" fill="#FFB8B8"/>
<path d="M199.584 191.95H211.305V199.04H192.955V198.579C192.955 196.821 193.653 195.135 194.897 193.892C196.14 192.649 197.826 191.95 199.584 191.95Z" fill="#2F2E41"/>
<path d="M227.12 41.5044C231.687 36.9365 231.687 29.5305 227.12 24.9627C222.552 20.3948 215.146 20.3948 210.578 24.9627C206.01 29.5305 206.01 36.9365 210.578 41.5044C215.146 46.0722 222.552 46.0722 227.12 41.5044Z" fill="#FFB8B8"/>
<path d="M209.696 177.562H201.717C201.172 177.561 200.647 177.353 200.25 176.98C199.852 176.606 199.612 176.096 199.576 175.551C197.199 137.757 198.59 110.646 203.953 90.2327C203.976 90.1434 204.005 90.0557 204.04 89.97L204.467 88.9017C204.625 88.5032 204.899 88.1615 205.254 87.9211C205.609 87.6808 206.028 87.553 206.457 87.5544H222.864C223.173 87.5541 223.479 87.6209 223.76 87.7501C224.041 87.8793 224.29 88.0678 224.491 88.3027L226.72 90.9029C226.763 90.9536 226.804 91.0052 226.843 91.0596C236.892 105.073 245.898 132.47 256.328 169.294C256.482 169.829 256.421 170.404 256.157 170.894C255.894 171.385 255.45 171.754 254.919 171.921L246.344 174.665C245.852 174.82 245.32 174.794 244.846 174.59C244.372 174.386 243.987 174.019 243.761 173.555L221.51 127.404C221.354 127.082 221.099 126.818 220.782 126.652C220.464 126.486 220.102 126.426 219.748 126.482C219.395 126.538 219.068 126.706 218.818 126.962C218.567 127.218 218.406 127.548 218.357 127.902L211.819 175.709C211.747 176.222 211.493 176.692 211.103 177.032C210.713 177.372 210.214 177.561 209.696 177.562Z" fill="#2F2E41"/>
<path d="M225.82 91.0931C225.798 91.0931 225.775 91.0926 225.753 91.0922L205.823 90.4629C205.311 90.4486 204.821 90.2505 204.442 89.9048C204.064 89.5591 203.822 89.0888 203.762 88.5798C201.236 68.1298 208.164 62.6512 211.26 61.2453C211.519 61.1286 211.743 60.947 211.911 60.7181C212.079 60.4892 212.185 60.2208 212.219 59.939L212.487 57.7954C212.532 57.4169 212.679 57.0575 212.91 56.7546C217.765 50.4659 224.393 48.4522 227.913 47.8118C228.198 47.7605 228.491 47.7677 228.774 47.8331C229.056 47.8985 229.322 48.0206 229.556 48.1921C229.79 48.3635 229.987 48.5807 230.134 48.8305C230.281 49.0803 230.376 49.3574 230.413 49.6451L230.815 52.7229C230.856 53.0165 230.973 53.2942 231.155 53.5284C241.279 66.7639 230 86.3061 227.636 90.089C227.443 90.3962 227.175 90.6494 226.857 90.825C226.54 91.0006 226.183 91.0928 225.82 91.0931Z" fill="#33C060"/>
<path d="M223.961 120.16C224.574 119.731 225.084 119.172 225.458 118.524C225.831 117.876 226.057 117.154 226.121 116.408C226.185 115.663 226.085 114.913 225.827 114.211C225.57 113.509 225.161 112.871 224.631 112.344L228.333 67.6394L217.311 69.1557L217.101 112.59C216.274 113.54 215.825 114.76 215.837 116.019C215.85 117.278 216.323 118.489 217.169 119.422C218.015 120.355 219.173 120.946 220.425 121.082C221.677 121.218 222.935 120.89 223.961 120.16Z" fill="#FFB8B8"/>
<path d="M229.053 74.0766C228.847 74.0766 228.641 74.0468 228.443 73.9883L216.611 70.5082C216.326 70.4246 216.063 70.2828 215.836 70.092C215.609 69.9011 215.424 69.6652 215.293 69.3993C215.162 69.1334 215.088 68.8431 215.075 68.547C215.062 68.2508 215.11 67.9551 215.217 67.6787L219.596 56.3663C219.779 55.8885 220.127 55.4923 220.577 55.25C221.028 55.0077 221.55 54.9355 222.05 55.0464L229.867 56.7458C230.355 56.8521 230.791 57.1254 231.099 57.5185C231.406 57.9116 231.568 58.3999 231.554 58.8991L231.19 71.9918C231.175 72.5488 230.943 73.0779 230.544 73.4671C230.145 73.8562 229.61 74.0748 229.053 74.0766Z" fill="#33C060"/>
<path d="M327.736 199.937H158.079C157.961 199.937 157.847 199.89 157.764 199.807C157.68 199.723 157.634 199.61 157.634 199.492C157.634 199.374 157.68 199.261 157.764 199.177C157.847 199.094 157.961 199.047 158.079 199.047H327.736C327.854 199.047 327.967 199.094 328.051 199.177C328.134 199.261 328.181 199.374 328.181 199.492C328.181 199.61 328.134 199.723 328.051 199.807C327.967 199.89 327.854 199.937 327.736 199.937Z" fill="#3F3D56"/>
<path d="M231.718 25.959C230.849 23.3254 230.208 20.6222 229.801 17.879C229.673 16.2819 230.083 14.5635 231.246 13.4616C233.422 11.3994 237.12 12.3816 239.397 14.3333C242.686 17.1539 244.327 21.4886 244.947 25.7773C245.567 30.0661 245.294 34.4274 245.444 38.7581C245.593 43.0889 246.212 47.542 248.42 51.2707C250.628 54.9994 254.725 57.8615 259.047 57.5442C260.791 57.4499 262.448 56.7479 263.729 55.5601C264.358 54.9619 264.834 54.2217 265.117 53.4015C265.401 52.5813 265.484 51.7051 265.359 50.8462C267.568 54.8015 266.448 60.1622 263.154 63.2716C259.859 66.3809 254.791 67.2599 250.459 65.9324C246.128 64.6048 242.563 61.2761 240.434 57.2774C238.304 53.2787 237.524 48.6595 237.637 44.1307C237.724 40.6528 238.315 37.1466 237.728 33.7177C237.14 30.2888 234.994 26.8072 231.61 25.9997L231.718 25.959Z" fill="#2F2E41"/>
<path d="M216.522 30.4671C215.945 32.3944 213.738 33.5829 211.753 33.2569C209.768 32.931 208.135 31.2961 207.532 29.3769C206.987 27.4166 207.21 25.3222 208.156 23.521C208.678 22.4414 209.407 21.4752 210.302 20.6777C211.198 19.8802 212.241 19.2671 213.374 18.8735C214.513 18.4961 215.726 18.3979 216.911 18.5872C218.095 18.7765 219.217 19.2478 220.182 19.9614C220.285 19.5284 220.501 19.1306 220.808 18.809C221.116 18.4874 221.504 18.2536 221.932 18.1315C222.793 17.8993 223.703 17.9127 224.557 18.1703C227.02 18.872 229.153 20.4242 230.579 22.5508C231.986 24.6709 232.917 27.071 233.308 29.5856C233.98 33.3566 233.732 37.4772 231.614 40.6688C229.496 43.8604 225.163 45.745 221.648 44.2234C221.429 43.1028 221.948 41.9745 222.549 41.0036C223.149 40.0326 223.861 39.0867 224.092 37.9685C224.323 36.8502 223.88 35.4824 222.799 35.1167C221.876 34.8048 220.892 35.3102 219.92 35.3713C219.368 35.4059 218.817 35.2948 218.321 35.049C217.825 34.8033 217.403 34.4315 217.097 33.971C216.79 33.5106 216.61 32.9776 216.574 32.4256C216.539 31.8736 216.649 31.3219 216.894 30.8259L216.522 30.4671Z" fill="#2F2E41"/>
</g>
<defs>
<clipPath id="clip0_39_699">
<rect width="331.655" height="200" fill="white" transform="translate(4)"/>
</clipPath>
</defs>
</svg>
