<svg width="400" height="391" viewBox="0 0 400 391" fill="none" xmlns="http://www.w3.org/2000/svg">
<g clip-path="url(#clip0_762_1487)">
<path d="M253.938 87.8109H146.155C143.699 87.8139 141.344 88.7909 139.607 90.5277C137.871 92.2644 136.894 94.6192 136.891 97.0753V336.623L135.655 337L109.215 345.097C107.961 345.479 106.608 345.349 105.451 344.734C104.294 344.119 103.429 343.07 103.045 341.818L24.3953 84.9142C24.0125 83.6611 24.143 82.3072 24.758 81.1503C25.373 79.9933 26.4221 79.1278 27.6749 78.7441L68.4202 66.2679L186.542 30.1118L227.287 17.6357C227.907 17.4448 228.559 17.3781 229.205 17.4394C229.85 17.5007 230.478 17.6887 231.051 17.9928C231.624 18.2968 232.132 18.7109 232.545 19.2113C232.957 19.7118 233.268 20.2887 233.457 20.9091L253.561 86.5756L253.938 87.8109Z" fill="#F2F2F2"/>
<path d="M277.456 86.5756L253.227 7.43244C252.823 6.11377 252.164 4.88745 251.287 3.82357C250.41 2.75968 249.332 1.87909 248.114 1.23209C246.896 0.585098 245.563 0.184381 244.19 0.0528577C242.818 -0.078666 241.433 0.0615798 240.114 0.465567L182.829 18.0001L64.7135 54.1624L7.42822 71.7031C4.76705 72.5203 2.53881 74.3599 1.23261 76.8182C-0.0735919 79.2766 -0.351048 82.1527 0.461157 84.8154L83.2731 355.294C83.9329 357.444 85.2642 359.325 87.0717 360.662C88.8792 362 91.0676 362.722 93.316 362.725C94.3566 362.725 95.3913 362.569 96.3854 362.261L135.654 350.242L136.89 349.859V348.568L135.654 348.945L96.0211 361.082C93.6722 361.798 91.1351 361.553 88.9664 360.401C86.7977 359.249 85.1746 357.283 84.4529 354.936L1.64726 84.451C1.28971 83.288 1.16509 82.0658 1.28054 80.8545C1.39599 79.6432 1.74924 78.4666 2.32006 77.3921C2.89089 76.3175 3.66809 75.3661 4.60713 74.5923C5.54618 73.8186 6.62862 73.2376 7.79251 72.8828L65.0778 55.3421L183.194 19.186L240.479 1.64525C241.362 1.37584 242.279 1.23847 243.202 1.23761C245.183 1.24206 247.111 1.88067 248.702 3.05989C250.294 4.23911 251.466 5.89698 252.047 7.79068L276.165 86.5757L276.548 87.8109H277.833L277.456 86.5756Z" fill="#3F3D56"/>
<path d="M75.7715 78.946C74.5811 78.9452 73.4223 78.5628 72.4651 77.8551C71.5079 77.1474 70.8026 76.1516 70.4529 75.0137L62.4976 49.0289C62.2838 48.3309 62.2096 47.5976 62.2793 46.871C62.3489 46.1443 62.561 45.4385 62.9035 44.7938C63.246 44.1491 63.7121 43.5782 64.2753 43.1137C64.8384 42.6492 65.4875 42.3002 66.1856 42.0866L174.851 8.81868C176.261 8.38852 177.783 8.53523 179.085 9.22661C180.387 9.91798 181.361 11.0975 181.794 12.5064L189.749 38.4915C190.179 39.9012 190.032 41.4238 189.341 42.7253C188.649 44.0269 187.47 45.001 186.061 45.4341L77.3955 78.702C76.8693 78.8635 76.3219 78.9457 75.7715 78.946Z" fill="#33C060"/>
<path d="M117.446 27.7654C124.269 27.7654 129.799 22.235 129.799 15.4128C129.799 8.59063 124.269 3.06018 117.446 3.06018C110.624 3.06018 105.094 8.59063 105.094 15.4128C105.094 22.235 110.624 27.7654 117.446 27.7654Z" fill="#33C060"/>
<path d="M117.447 23.2348C121.767 23.2348 125.269 19.7328 125.269 15.4128C125.269 11.0928 121.767 7.5907 117.447 7.5907C113.127 7.5907 109.625 11.0928 109.625 15.4128C109.625 19.7328 113.127 23.2348 117.447 23.2348Z" fill="white"/>
<path d="M372.204 359.568H163.445C162.053 359.567 160.719 359.013 159.735 358.029C158.751 357.045 158.197 355.71 158.195 354.318V104.178C158.197 102.786 158.75 101.452 159.735 100.468C160.719 99.4834 162.053 98.9298 163.445 98.9282H372.204C373.596 98.9298 374.931 99.4835 375.915 100.468C376.899 101.452 377.453 102.786 377.454 104.178V354.318C377.453 355.71 376.899 357.045 375.915 358.029C374.931 359.013 373.596 359.567 372.204 359.568Z" fill="#E6E6E6"/>
<path d="M276.163 86.5757H146.152C143.369 86.5796 140.7 87.6871 138.732 89.6553C136.764 91.6236 135.656 94.2919 135.652 97.0754V348.945L136.888 348.568V97.0754C136.891 94.6192 137.868 92.2645 139.604 90.5277C141.341 88.791 143.696 87.8139 146.152 87.8109H276.546L276.163 86.5757ZM389.499 86.5757H146.152C143.369 86.5796 140.7 87.6871 138.732 89.6553C136.764 91.6236 135.656 94.2919 135.652 97.0754V379.95C135.656 382.734 136.764 385.402 138.732 387.37C140.7 389.339 143.369 390.446 146.152 390.45H389.499C392.282 390.446 394.95 389.339 396.919 387.37C398.887 385.402 399.994 382.734 399.998 379.95V97.0754C399.994 94.2919 398.887 91.6236 396.919 89.6553C394.95 87.6871 392.282 86.5796 389.499 86.5757ZM398.763 379.95C398.76 382.406 397.783 384.761 396.046 386.498C394.309 388.235 391.955 389.212 389.499 389.215H146.152C143.696 389.212 141.341 388.235 139.604 386.498C137.868 384.761 136.891 382.406 136.888 379.95V97.0754C136.891 94.6192 137.868 92.2645 139.604 90.5277C141.341 88.791 143.696 87.8139 146.152 87.8109H389.499C391.955 87.8139 394.309 88.791 396.046 90.5277C397.783 92.2645 398.76 94.6192 398.763 97.0754V379.95Z" fill="#3F3D56"/>
<path d="M324.648 113.751H211.004C209.53 113.75 208.117 113.164 207.075 112.121C206.033 111.079 205.447 109.666 205.445 108.193V81.0169C205.447 79.5432 206.033 78.1303 207.075 77.0882C208.117 76.0461 209.53 75.4599 211.004 75.4583H324.648C326.122 75.4599 327.535 76.0461 328.577 77.0882C329.619 78.1303 330.205 79.5432 330.207 81.0169V108.193C330.205 109.666 329.619 111.079 328.577 112.121C327.535 113.164 326.122 113.75 324.648 113.751Z" fill="#33C060"/>
<path d="M267.825 77.3112C274.647 77.3112 280.178 71.7807 280.178 64.9586C280.178 58.1364 274.647 52.606 267.825 52.606C261.003 52.606 255.473 58.1364 255.473 64.9586C255.473 71.7807 261.003 77.3112 267.825 77.3112Z" fill="#33C060"/>
<path d="M267.829 72.4825C271.984 72.4825 275.352 69.1139 275.352 64.9586C275.352 60.8033 271.984 57.4347 267.829 57.4347C263.673 57.4347 260.305 60.8033 260.305 64.9586C260.305 69.1139 263.673 72.4825 267.829 72.4825Z" fill="white"/>
</g>
<defs>
<clipPath id="clip0_762_1487">
<rect width="400" height="390.45" fill="white"/>
</clipPath>
</defs>
</svg>
