<svg width="340" height="200" viewBox="0 0 340 200" fill="none" xmlns="http://www.w3.org/2000/svg">
<g clip-path="url(#clip0_39_702)">
<path d="M213.698 61.8202C213.69 66.3392 212.342 70.7543 209.825 74.5072C207.307 78.2601 203.734 81.1823 199.556 82.9042C195.378 84.6261 190.783 85.0705 186.352 84.181C181.922 83.2915 177.854 81.1082 174.665 77.9072C171.475 74.7062 169.306 70.6311 168.432 66.1975C167.559 61.7638 168.019 57.1706 169.756 52.9987C171.493 48.8268 174.428 45.2636 178.189 42.7597C181.951 40.2557 186.371 38.9235 190.89 38.9316C193.893 38.9291 196.866 39.52 199.64 40.6704C202.413 41.8208 204.932 43.508 207.052 45.6349C209.171 47.7619 210.849 50.2867 211.99 53.0644C213.13 55.842 213.711 58.8176 213.698 61.8202Z" fill="#F2F2F2"/>
<path d="M251.724 75.1389L254.937 69.0047C252.056 65.5259 242.604 61.3067 242.604 61.3067L229.812 49.6629C229.675 49.1434 229.405 48.669 229.027 48.2873C228.649 47.9057 228.177 47.6304 227.659 47.489C227.141 47.3477 226.595 47.3453 226.075 47.4821C225.556 47.619 225.082 47.8902 224.701 48.2686C224.32 48.6469 224.045 49.119 223.904 49.6373C223.763 50.1556 223.762 50.7018 223.899 51.2209C224.037 51.7401 224.308 52.2139 224.687 52.5946C225.066 52.9753 225.538 53.2496 226.057 53.3897L239.877 69.965L251.724 75.1389Z" fill="#9E616A"/>
<path d="M250.168 74.7157L254.704 76.16C258.003 77.2103 261.558 77.1312 264.806 75.9351C265.789 75.5692 266.65 74.9358 267.291 74.1064C267.933 73.2769 268.33 72.2846 268.437 71.2415C268.573 69.8265 268.166 68.4127 267.3 67.286C266.433 66.1593 265.171 65.4037 263.768 65.1721C259.514 64.473 254.033 64.1282 252.077 66.4553L252.058 66.4788L250.168 74.7157Z" fill="#3F3D56"/>
<path d="M217.54 93.4949C230.158 93.4949 240.388 83.2654 240.388 70.6467C240.388 58.028 230.158 47.7985 217.54 47.7985C204.921 47.7985 194.692 58.028 194.692 70.6467C194.692 83.2654 204.921 93.4949 217.54 93.4949Z" fill="white"/>
<path d="M208.215 61.7097C207.901 63.3945 207.387 65.0357 206.683 66.5983C202.653 75.1247 214.131 72.3455 218.233 72.3455C222.717 72.3455 227.008 74.7038 226.353 64.2251C226.073 59.7491 222.717 56.1047 218.233 56.1047C214.402 56.1047 209.016 57.8074 208.215 61.7097Z" fill="#2F2E41"/>
<path d="M217.561 72.3435C221.205 72.3435 224.159 69.3891 224.159 65.7447C224.159 62.1004 221.205 59.146 217.561 59.146C213.916 59.146 210.962 62.1004 210.962 65.7447C210.962 69.3891 213.916 72.3435 217.561 72.3435Z" fill="#FFB6B6"/>
<path d="M213.08 59.0183C214.236 58.3134 215.56 57.9321 216.914 57.9142C218.269 57.8964 219.603 58.2426 220.777 58.9168C221.952 59.591 222.923 60.5684 223.591 61.7467C224.258 62.925 224.597 64.261 224.571 65.615C221.209 66.4592 217.677 67.1053 214.091 65.817L213.244 63.7445L212.745 65.8185C211.653 66.2648 210.558 66.6425 209.463 65.8142C209.419 64.464 209.729 63.1257 210.364 61.9332C210.998 60.7406 211.935 59.7355 213.08 59.0183Z" fill="#2F2E41"/>
<path d="M235.305 85.8394C231.347 90.3435 225.776 93.1102 219.796 93.5424C213.815 93.9747 207.904 92.0377 203.339 88.1496L205.299 82.6813C205.742 81.71 206.441 80.8776 207.321 80.2734C208.201 79.6691 209.228 79.3158 210.294 79.2512L211.541 79.1747L214.514 76.6107C214.514 76.6107 222.524 76.3247 222.405 76.1877L227.257 79.1062L227.253 79.0861L229.16 79.2029C230.226 79.2672 231.254 79.6204 232.134 80.2247C233.014 80.829 233.713 81.6615 234.155 82.6329L235.305 85.8394Z" fill="#33C060"/>
<path d="M215.535 179.987L214.967 172.091C211.248 170.232 207.132 169.309 202.975 169.402C208.823 173.922 208.355 182.956 212.405 189.139C213.683 191.058 215.376 192.665 217.359 193.84C219.342 195.015 221.565 195.729 223.861 195.929L228.728 198.729C229.285 195.049 229.037 191.293 228.003 187.718C226.968 184.143 225.17 180.835 222.734 178.022C221.351 176.457 219.777 175.073 218.049 173.902C216.985 176.956 215.535 179.987 215.535 179.987Z" fill="#F2F2F2"/>
<path d="M67.56 40.0263L66.9922 32.13C63.2733 30.2709 59.1567 29.3478 55 29.4407C60.8479 33.9609 60.3795 42.9954 64.4295 49.1783C65.7074 51.097 67.4008 52.7035 69.384 53.8788C71.3672 55.0542 73.5895 55.7681 75.8862 55.9678L80.7531 58.7678C81.3098 55.0881 81.0622 51.3315 80.0273 47.7568C78.9924 44.182 77.1948 40.8741 74.7584 38.061C73.376 36.4964 71.802 35.1121 70.0736 33.9408C69.0098 36.995 67.56 40.0263 67.56 40.0263Z" fill="#F2F2F2"/>
<path d="M236.826 196.059L233.029 196.059L231.223 181.416H236.826L236.826 196.059Z" fill="#9E616A"/>
<path d="M237.794 199.739L225.553 199.739V199.584C225.553 198.32 226.055 197.108 226.949 196.215C227.842 195.321 229.054 194.819 230.317 194.819H230.318L232.554 193.123L236.726 194.82L237.794 194.82L237.794 199.739Z" fill="#2F2E41"/>
<path d="M270.284 196.059L266.488 196.059L264.682 181.416H270.285L270.284 196.059Z" fill="#9E616A"/>
<path d="M271.252 199.739L259.011 199.739V199.584C259.011 198.32 259.513 197.108 260.407 196.215C261.3 195.321 262.512 194.819 263.776 194.819H263.776L266.012 193.123L270.184 194.82L271.252 194.82L271.252 199.739Z" fill="#2F2E41"/>
<path d="M264.51 117.689L267.703 148.023C267.703 148.023 271.954 178.395 271.155 182.586C270.357 186.777 271.355 187.376 271.355 187.376L264.071 186.857C264.071 186.857 264.271 184.263 263.073 183.065C261.876 181.868 262.475 178.276 262.475 178.276L248.345 128.865L239.764 154.808C239.764 154.808 238.367 183.346 238.168 183.745C237.968 184.144 237.369 189.532 237.369 189.532H229.985C229.985 189.532 230.983 186.339 229.586 185.341C228.189 184.343 226.992 185.142 228.189 183.346C229.387 181.549 229.786 179.354 229.387 178.356C228.988 177.359 228.988 173.367 228.988 173.367C228.988 173.367 229.586 119.485 232.979 117.689C236.371 115.893 264.51 117.689 264.51 117.689Z" fill="#2F2E41"/>
<path d="M249.389 56.2712C253.726 56.2712 257.242 52.755 257.242 48.4177C257.242 44.0803 253.726 40.5642 249.389 40.5642C245.051 40.5642 241.535 44.0803 241.535 48.4177C241.535 52.755 245.051 56.2712 249.389 56.2712Z" fill="#9E616A"/>
<path d="M267.224 120.995C252.015 124.136 231.859 118.736 231.859 118.736L237.236 95.4295L235.325 71.0386C235.091 68.0559 236.79 65.26 239.433 64.2692L243.082 62.9023L246.099 58.5839L254.715 58.8666L258.159 63.4003L260.877 64.8424L266.77 67.9678L266.796 67.9807V67.9937L264.947 85.9315L263.832 96.7471C263.832 96.7471 267.219 108.911 266.524 110.525C265.829 112.135 266.433 111.357 266.602 112.218C266.77 113.079 267.286 113.134 267.364 114.83C267.445 116.524 267.224 120.995 267.224 120.995Z" fill="#3F3D56"/>
<path d="M285.61 200H168.126C168.056 200 167.989 199.972 167.94 199.923C167.891 199.873 167.863 199.807 167.863 199.737C167.863 199.667 167.891 199.6 167.94 199.551C167.989 199.502 168.056 199.474 168.126 199.474H285.61C285.68 199.474 285.747 199.501 285.796 199.551C285.846 199.6 285.873 199.667 285.873 199.737C285.873 199.807 285.846 199.874 285.796 199.923C285.747 199.972 285.68 200 285.61 200Z" fill="#CCCCCC"/>
<path d="M249.006 55.8938C250.384 55.8798 251.758 55.7481 253.113 55.5002C254.454 55.1911 257.414 52.9025 258.22 51.5505C258.82 50.546 259.179 48.9922 259.376 47.8657C259.641 46.3748 259.59 44.845 259.226 43.3751C258.862 41.9052 258.193 40.5282 257.264 39.3331C256.905 38.8325 256.418 38.438 255.854 38.1914C255.804 38.1734 255.753 38.1576 255.701 38.1443C254.883 37.9515 254.141 37.5187 253.571 36.9014C253.461 36.7764 253.341 36.6596 253.214 36.5518C252.574 36.0397 251.822 35.6863 251.02 35.5203C249.724 35.2091 247.87 35.5991 245.509 36.6807C244.323 37.2241 243.007 37.0725 241.993 36.8797C241.936 36.8702 241.878 36.8758 241.824 36.8959C241.77 36.916 241.722 36.9499 241.685 36.9942C241.266 37.4083 240.706 37.6484 240.117 37.6664C239.757 37.6916 239.392 38.2006 238.951 38.8635C238.851 39.014 238.735 39.1896 238.65 39.2968L238.633 39.0955L238.435 39.3256C238.123 39.6873 237.909 40.1219 237.81 40.589C237.712 41.0561 237.733 41.5405 237.873 41.9971C238.012 42.4536 238.265 42.8675 238.607 43.2001C238.949 43.5328 239.37 43.7734 239.831 43.8996C240.196 43.9867 240.569 44.0364 240.944 44.0477C241.172 44.0623 241.407 44.0773 241.633 44.1106C242.359 44.2398 243.039 44.5551 243.607 45.0256C244.175 45.4962 244.611 46.1059 244.873 46.7953C244.934 46.9546 245.032 47.0976 245.158 47.2132C245.284 47.3288 245.434 47.414 245.598 47.4621C245.762 47.5102 245.935 47.52 246.104 47.4907C246.272 47.4614 246.431 47.3938 246.569 47.2932C246.799 47.1046 247.071 46.9744 247.362 46.9136C247.653 46.8528 247.954 46.8633 248.24 46.9442C248.489 47.0742 248.685 47.2857 248.796 47.5433C248.931 47.8301 249.148 48.0702 249.419 48.2332C250.345 48.6808 250.462 50.7664 250.179 52.5148C249.906 54.2002 249.312 55.4296 248.734 55.5045C248.29 55.5621 248.24 55.5951 248.209 55.6748L248.182 55.7461L248.234 55.8108C248.483 55.8937 248.746 55.922 249.006 55.8938Z" fill="#2F2E41"/>
<path d="M217.54 93.7811C212.964 93.7811 208.491 92.4243 204.687 89.8823C200.883 87.3403 197.917 83.7272 196.166 79.4999C194.415 75.2726 193.957 70.6211 194.85 66.1334C195.743 61.6458 197.946 57.5237 201.181 54.2883C204.417 51.0528 208.539 48.8495 213.027 47.9569C217.514 47.0642 222.166 47.5224 226.393 49.2733C230.62 51.0243 234.233 53.9895 236.775 57.794C239.317 61.5984 240.674 66.0712 240.674 70.6467C240.667 76.7802 238.228 82.6605 233.891 86.9976C229.554 91.3346 223.673 93.7742 217.54 93.7811ZM217.54 48.0848C213.077 48.0848 208.715 49.408 205.005 51.8872C201.295 54.3663 198.403 57.89 196.695 62.0127C194.988 66.1353 194.541 70.6718 195.411 75.0484C196.282 79.4249 198.431 83.4451 201.586 86.6005C204.741 89.7558 208.762 91.9046 213.138 92.7752C217.515 93.6457 222.051 93.1989 226.174 91.4913C230.297 89.7836 233.82 86.8918 236.299 83.1815C238.779 79.4712 240.102 75.1091 240.102 70.6467C240.095 64.665 237.716 58.9302 233.486 54.7005C229.256 50.4708 223.522 48.0916 217.54 48.0848Z" fill="#3F3D56"/>
<path d="M137.685 45.9826C150.303 45.9826 160.533 35.7531 160.533 23.1344C160.533 10.5156 150.303 0.286133 137.685 0.286133C125.066 0.286133 114.836 10.5156 114.836 23.1344C114.836 35.7531 125.066 45.9826 137.685 45.9826Z" fill="white"/>
<path d="M138.742 25.465C142.857 25.465 146.193 22.1293 146.193 18.0146C146.193 13.8999 142.857 10.5642 138.742 10.5642C134.627 10.5642 131.292 13.8999 131.292 18.0146C131.292 22.1293 134.627 25.465 138.742 25.465Z" fill="#FFB8B8"/>
<path d="M145.302 13.0928C145.302 13.0928 147.242 9.3844 142.974 9.04728C142.974 9.04728 139.336 5.74694 135.627 8.44393C135.627 8.44393 133.605 8.44393 132.499 10.7329C132.499 10.7329 130.908 10.1295 130.558 11.7443C130.558 11.7443 129.394 15.1155 130.558 18.1496C131.722 21.1837 132.109 21.5209 132.109 21.5209C132.109 21.5209 131.292 17.7557 135.948 17.4186C140.604 17.0814 144.876 14.1646 145.264 17.873C145.652 21.5813 146.078 19.9061 146.078 19.9061C146.078 19.9061 149.764 14.6098 145.302 13.0928Z" fill="#2F2E41"/>
<path d="M154.868 38.327C150.909 42.831 145.338 45.5978 139.358 46.03C133.377 46.4622 127.466 44.5252 122.901 40.6372L124.861 35.1688C125.304 34.1976 126.003 33.3652 126.883 32.7609C127.763 32.1567 128.791 31.8033 129.856 31.7388L131.103 31.6622L134.076 29.0983C134.076 29.0983 142.086 28.8123 141.967 28.6753L146.819 31.5938L146.815 31.5736L148.722 31.6904C149.788 31.7547 150.816 32.1079 151.696 32.7122C152.576 33.3165 153.275 34.1491 153.717 35.1205L154.868 38.327Z" fill="#33C060"/>
<path d="M137.685 46.2688C133.109 46.2688 128.636 44.912 124.832 42.37C121.027 39.8279 118.062 36.2148 116.311 31.9876C114.56 27.7603 114.102 23.1088 114.995 18.6211C115.887 14.1335 118.091 10.0113 121.326 6.77592C124.562 3.54052 128.684 1.33718 133.171 0.444532C137.659 -0.448114 142.311 0.0100223 146.538 1.76101C150.765 3.512 154.378 6.47719 156.92 10.2816C159.462 14.0861 160.819 18.5589 160.819 23.1344C160.812 29.2679 158.373 35.1482 154.036 39.4852C149.698 43.8223 143.818 46.2619 137.685 46.2688ZM137.685 0.572448C133.222 0.572447 128.86 1.89568 125.15 4.37482C121.44 6.85396 118.548 10.3777 116.84 14.5003C115.133 18.623 114.686 23.1594 115.556 27.536C116.427 31.9126 118.576 35.9328 121.731 39.0881C124.886 42.2435 128.906 44.3923 133.283 45.2629C137.66 46.1334 142.196 45.6866 146.319 43.9789C150.441 42.2713 153.965 39.3795 156.444 35.6692C158.923 31.9589 160.247 27.5967 160.247 23.1344C160.24 17.1527 157.861 11.4179 153.631 7.18819C149.401 2.95847 143.666 0.579233 137.685 0.572448Z" fill="#3F3D56"/>
<path d="M84.3554 82.0462C96.9741 82.0462 107.204 71.8167 107.204 59.198C107.204 46.5792 96.9741 36.3497 84.3554 36.3497C71.7367 36.3497 61.5072 46.5792 61.5072 59.198C61.5072 71.8167 71.7367 82.0462 84.3554 82.0462Z" fill="white"/>
<path d="M73.7655 51.7655C74.7102 48.7545 76.8587 45.993 79.8299 44.9752C82.8013 43.9573 87.1522 45.5078 89.386 47.7341C93.4721 51.8064 94.4692 65.7962 91.6619 70.2171C91.1035 70.1876 89.1768 70.1657 88.6116 70.1445L87.8121 67.4799V70.1183C86.9118 70.0904 86.0044 70.0712 85.0899 70.0606C82.0239 70.0226 79.0921 68.7974 76.9107 66.6425C74.7294 64.4876 73.4685 61.5709 73.3931 58.5056C73.3199 55.5732 73.3932 52.952 73.7655 51.7655Z" fill="#2F2E41"/>
<path d="M84.0166 61.7444C87.6128 61.7444 90.5282 58.829 90.5282 55.2328C90.5282 51.6365 87.6128 48.7212 84.0166 48.7212C80.4203 48.7212 77.505 51.6365 77.505 55.2328C77.505 58.829 80.4203 61.7444 84.0166 61.7444Z" fill="#9E616A"/>
<path d="M78.3969 49.514L85.8943 45.7599C87.4271 46.4506 88.7472 47.5388 89.7177 48.9117C90.6883 50.2845 91.2738 51.892 91.4137 53.5674L91.6006 55.8059L88.461 55.0067L88.117 52.1444L87.5839 54.7834L86.135 54.4148L86.1488 49.9711L84.699 54.4116L79.5242 53.2227L78.3969 49.514Z" fill="#2F2E41"/>
<path d="M101.31 74.3179C97.3519 78.822 91.7811 81.5887 85.8004 82.021C79.8198 82.4532 73.909 80.5162 69.3441 76.6281L71.3039 71.1598C71.7467 70.1885 72.4456 69.3562 73.3256 68.7519C74.2055 68.1476 75.2334 67.7943 76.2989 67.7297L77.5456 67.6532L80.5185 65.0892C80.5185 65.0892 88.5286 64.8032 88.4098 64.6663L93.2618 67.5847L93.2578 67.5646L95.1652 67.6814C96.2308 67.7457 97.2587 68.0989 98.1387 68.7032C99.0187 69.3075 99.7176 70.14 100.16 71.1115L101.31 74.3179Z" fill="#33C060"/>
<path d="M84.3555 82.3324C79.7799 82.3324 75.3071 80.9756 71.5027 78.4336C67.6983 75.8915 64.7331 72.2784 62.9821 68.0512C61.2311 63.8239 60.773 59.1724 61.6656 54.6847C62.5582 50.1971 64.7616 46.0749 67.997 42.8395C71.2324 39.6041 75.3545 37.4008 79.8422 36.5081C84.3298 35.6155 88.9814 36.0736 93.2086 37.8246C97.4359 39.5756 101.049 42.5408 103.591 46.3452C106.133 50.1497 107.49 54.6225 107.49 59.198C107.483 65.3315 105.043 71.2118 100.706 75.5488C96.3693 79.8859 90.489 82.3255 84.3555 82.3324ZM84.3555 36.636C79.8931 36.636 75.531 37.9593 71.8207 40.4384C68.1104 42.9176 65.2186 46.4413 63.5109 50.5639C61.8033 54.6866 61.3565 59.223 62.227 63.5996C63.0976 67.9762 65.2464 71.9964 68.4018 75.1517C71.5571 78.3071 75.5773 80.4559 79.9539 81.3265C84.3304 82.197 88.8669 81.7502 92.9896 80.0425C97.1122 78.3349 100.636 75.4431 103.115 71.7328C105.594 68.0225 106.917 63.6603 106.917 59.198C106.911 53.2163 104.531 47.4815 100.302 43.2518C96.072 39.0221 90.3372 36.6428 84.3555 36.636Z" fill="#3F3D56"/>
<path d="M238.642 82.5001L235.183 76.5013C230.702 77.0705 222.076 82.7919 222.076 82.7919L205.391 87.3571C204.879 87.1938 204.334 87.1683 203.809 87.2829C203.284 87.3976 202.799 87.6485 202.402 88.0103C202.005 88.3721 201.711 88.832 201.548 89.3439C201.386 89.8557 201.361 90.4014 201.476 90.9259C201.591 91.4504 201.843 91.9353 202.205 92.3318C202.567 92.7283 203.028 93.0223 203.54 93.1843C204.052 93.3464 204.597 93.3706 205.122 93.2547C205.646 93.1388 206.131 92.8868 206.527 92.524L227.926 89.7326L238.642 82.5001Z" fill="#9E616A"/>
<path d="M237.451 83.5875L245.195 77.1009L246.322 71.8797C246.539 70.8539 246.465 69.7877 246.109 68.8016C245.752 67.8155 245.127 66.9489 244.303 66.2996C243.181 65.4269 241.769 65.0129 240.354 65.1412C238.938 65.2695 237.624 65.9306 236.677 66.9909C233.808 70.2086 230.581 74.6525 231.498 77.5503L231.507 77.5797L237.451 83.5875Z" fill="#3F3D56"/>
<path d="M118.754 106.121H89.6557C88.8759 106.121 88.1283 105.81 87.5768 105.259C87.0254 104.707 86.7152 103.96 86.7144 103.18V85.2581C86.7152 84.4782 87.0254 83.7306 87.5768 83.1791C88.1283 82.6277 88.8759 82.3175 89.6557 82.3167H118.754C119.534 82.3175 120.282 82.6277 120.833 83.1791C121.385 83.7306 121.695 84.4782 121.696 85.2581V103.18C121.695 103.96 121.385 104.707 120.833 105.259C120.282 105.81 119.534 106.121 118.754 106.121Z" fill="#E6E6E6"/>
<path d="M107.193 103.813H91.7011C90.9708 103.812 90.2706 103.522 89.7541 103.005C89.2376 102.489 88.9471 101.788 88.9463 101.058V87.3797C88.9471 86.6494 89.2376 85.9491 89.7541 85.4327C90.2706 84.9163 90.9708 84.6258 91.7011 84.625H116.709C117.439 84.6258 118.139 84.9163 118.656 85.4327C119.172 85.9492 119.463 86.6494 119.464 87.3797V91.5423C119.46 94.7956 118.166 97.9145 115.865 100.215C113.565 102.515 110.446 103.809 107.193 103.813Z" fill="white"/>
<path d="M114.214 92.1151H94.1958C94.0227 92.1151 93.8566 92.0463 93.7342 91.9238C93.6118 91.8014 93.543 91.6353 93.543 91.4622C93.543 91.289 93.6118 91.123 93.7342 91.0005C93.8566 90.8781 94.0227 90.8093 94.1958 90.8093H114.214C114.387 90.8093 114.553 90.8781 114.676 91.0005C114.798 91.123 114.867 91.289 114.867 91.4622C114.867 91.6353 114.798 91.8014 114.676 91.9238C114.553 92.0463 114.387 92.1151 114.214 92.1151Z" fill="#33C060"/>
<path d="M97.3272 94.6948H94.1959C94.0227 94.6948 93.8566 94.626 93.7342 94.5036C93.6118 94.3812 93.543 94.2151 93.543 94.0419C93.543 93.8688 93.6118 93.7027 93.7342 93.5803C93.8566 93.4578 94.0227 93.389 94.1959 93.389H97.3272C97.5004 93.389 97.6665 93.4578 97.7889 93.5803C97.9114 93.7027 97.9801 93.8688 97.9801 94.0419C97.9801 94.2151 97.9114 94.3812 97.7889 94.5036C97.6665 94.626 97.5004 94.6948 97.3272 94.6948Z" fill="#33C060"/>
<path d="M102.873 97.2745H94.1958C94.0229 97.2742 93.8572 97.2052 93.7351 97.0828C93.6129 96.9604 93.5443 96.7946 93.5443 96.6217C93.5443 96.4487 93.6129 96.2829 93.7351 96.1605C93.8572 96.0381 94.0229 95.9691 94.1958 95.9688H102.873C103.046 95.9691 103.212 96.0381 103.334 96.1605C103.456 96.2829 103.525 96.4487 103.525 96.6217C103.525 96.7946 103.456 96.9604 103.334 97.0828C103.212 97.2052 103.046 97.2742 102.873 97.2745Z" fill="#33C060"/>
<path d="M85.6989 88.1152C89.0985 88.1152 91.8544 85.3592 91.8544 81.9597C91.8544 78.5601 89.0985 75.8042 85.6989 75.8042C82.2994 75.8042 79.5435 78.5601 79.5435 81.9597C79.5435 85.3592 82.2994 88.1152 85.6989 88.1152Z" fill="#3F3D56"/>
<path d="M194.316 24.8351H165.218C164.438 24.8343 163.69 24.5241 163.139 23.9726C162.587 23.4212 162.277 22.6736 162.276 21.8937V3.9718C162.277 3.19197 162.587 2.44432 163.139 1.89289C163.69 1.34146 164.438 1.03128 165.218 1.0304H194.316C195.096 1.03128 195.843 1.34146 196.395 1.89289C196.946 2.44432 197.257 3.19196 197.257 3.9718V21.8937C197.257 22.6736 196.946 23.4212 196.395 23.9726C195.843 24.5241 195.096 24.8343 194.316 24.8351Z" fill="#E6E6E6"/>
<path d="M182.755 22.5267H167.263C166.533 22.5259 165.832 22.2354 165.316 21.719C164.8 21.2026 164.509 20.5024 164.508 19.772V6.09359C164.509 5.36322 164.8 4.66302 165.316 4.14659C165.832 3.63016 166.533 3.33967 167.263 3.33887H192.271C193.001 3.33968 193.701 3.63017 194.218 4.1466C194.734 4.66303 195.025 5.36324 195.025 6.09359V10.2562C195.022 13.5094 193.728 16.6284 191.427 18.9287C189.127 21.2291 186.008 22.5231 182.755 22.5267Z" fill="white"/>
<path d="M189.776 10.8288H169.758C169.584 10.8288 169.418 10.76 169.296 10.6376C169.174 10.5151 169.105 10.3491 169.105 10.1759C169.105 10.0028 169.174 9.83672 169.296 9.71429C169.418 9.59185 169.584 9.52307 169.758 9.52307H189.776C189.949 9.52307 190.115 9.59185 190.238 9.71429C190.36 9.83672 190.429 10.0028 190.429 10.1759C190.429 10.3491 190.36 10.5151 190.238 10.6376C190.115 10.76 189.949 10.8288 189.776 10.8288Z" fill="#33C060"/>
<path d="M172.889 13.4087H169.758C169.584 13.4087 169.418 13.3399 169.296 13.2175C169.174 13.095 169.105 12.929 169.105 12.7558C169.105 12.5826 169.174 12.4166 169.296 12.2941C169.418 12.1717 169.584 12.1029 169.758 12.1029H172.889C173.062 12.1029 173.228 12.1717 173.351 12.2941C173.473 12.4166 173.542 12.5826 173.542 12.7558C173.542 12.929 173.473 13.095 173.351 13.2175C173.228 13.3399 173.062 13.4087 172.889 13.4087Z" fill="#33C060"/>
<path d="M178.435 15.9884H169.758C169.585 15.988 169.419 15.9191 169.297 15.7967C169.175 15.6743 169.106 15.5084 169.106 15.3355C169.106 15.1626 169.175 14.9967 169.297 14.8743C169.419 14.7519 169.585 14.683 169.758 14.6826H178.435C178.608 14.6826 178.774 14.7514 178.897 14.8738C179.019 14.9963 179.088 15.1624 179.088 15.3355C179.088 15.5087 179.019 15.6747 178.897 15.7972C178.774 15.9196 178.608 15.9884 178.435 15.9884Z" fill="#33C060"/>
<path d="M161.261 28.2954C164.66 28.2954 167.416 25.5395 167.416 22.14C167.416 18.7404 164.66 15.9845 161.261 15.9845C157.861 15.9845 155.105 18.7404 155.105 22.14C155.105 25.5395 157.861 28.2954 161.261 28.2954Z" fill="#3F3D56"/>
</g>
<defs>
<clipPath id="clip0_39_702">
<rect width="230.873" height="200" fill="white" transform="translate(55)"/>
</clipPath>
</defs>
</svg>
