<svg width="340" height="200" viewBox="0 0 340 200" fill="none" xmlns="http://www.w3.org/2000/svg">
<g clip-path="url(#clip0_39_696)">
<path d="M279.563 163.953H60.1199C55.4269 163.953 51.6086 160.133 51.6086 155.438V129.015H288.074V155.438C288.074 160.133 284.256 163.953 279.563 163.953Z" fill="#E6E6E6"/>
<path d="M198.243 159.533H142.282V199.521H198.243V159.533Z" fill="#E6E6E6"/>
<path d="M201.609 194.47H138.916V199.521H201.609V194.47Z" fill="#E6E6E6"/>
<path d="M287.864 140.17H51.6086V5.8433C51.6086 2.62137 54.2289 0 57.4495 0H282.023C285.244 0 287.864 2.62137 287.864 5.8433V140.17Z" fill="#3F3D56"/>
<path d="M170.262 4.84072C171.192 4.84072 171.945 4.08689 171.945 3.15699C171.945 2.2271 171.192 1.47327 170.262 1.47327C169.333 1.47327 168.579 2.2271 168.579 3.15699C168.579 4.08689 169.333 4.84072 170.262 4.84072Z" fill="white"/>
<path d="M282.184 6.10352H57.0786V132.804H282.184V6.10352Z" fill="white"/>
<path d="M255.838 101.828C266.438 101.828 275.031 93.2314 275.031 82.6273C275.031 72.0232 266.438 63.4269 255.838 63.4269C245.239 63.4269 236.646 72.0232 236.646 82.6273C236.646 93.2314 245.239 101.828 255.838 101.828Z" fill="#33C060"/>
<path d="M332.683 199.646C332.683 199.842 332.525 200 332.33 200H7V199.293H332.33C332.525 199.293 332.683 199.451 332.683 199.646Z" fill="#E6E6E6"/>
<path d="M62.0994 79.8349L59.6743 88.3262L69.3746 88.9327L68.7683 78.9252L62.0994 79.8349Z" fill="#FFB6B6"/>
<path d="M102.398 114.498C104.7 115.284 106.972 114.733 107.471 113.267C107.971 111.802 106.511 109.977 104.208 109.191C103.292 108.864 102.312 108.761 101.348 108.891L91.553 105.684L90.1462 110.314L99.9521 112.985C100.635 113.677 101.474 114.196 102.398 114.498Z" fill="#FFB6B6"/>
<path d="M69.8944 86.4431C69.8944 86.4431 63.8224 93.751 67.3351 96.7746C70.8479 99.7982 86.5348 110.991 86.5348 110.991L92.6504 111.944L94.2145 106.03L80.4053 95.7934L69.8944 86.4431Z" fill="#33C060"/>
<path d="M85.9829 164.239L89.3574 176.75L94.7169 175.757L93.5259 162.849L85.9829 164.239Z" fill="#FFB6B6"/>
<path d="M90.1514 175.955L88.1664 176.353L86.5784 181.714C86.5784 181.714 89.1589 182.707 89.1589 184.693C89.1589 186.679 90.1514 188.069 94.1214 187.87C98.0913 187.672 98.4883 187.87 98.4883 186.282C98.4883 184.693 95.5108 176.353 95.5108 176.353C95.5108 176.353 95.7093 172.977 93.3274 173.175C90.9454 173.374 90.1514 175.955 90.1514 175.955Z" fill="#2F2E41"/>
<path d="M67.8369 164.044L68.0672 177.001L73.5071 177.342L75.4913 164.532L67.8369 164.044Z" fill="#FFB6B6"/>
<path d="M69.0305 176.423L67.0085 176.325L64.1642 181.139C64.1642 181.139 66.4256 182.731 65.9426 184.657C65.4597 186.583 66.0842 188.173 69.9832 188.947C73.8822 189.72 74.219 190.01 74.6054 188.469C74.9917 186.928 74.1323 178.113 74.1323 178.113C74.1323 178.113 75.1459 174.887 72.7872 174.5C70.4285 174.113 69.0305 176.423 69.0305 176.423Z" fill="#2F2E41"/>
<path d="M70.1029 86.5937L59.384 85.7994L57.002 88.7781C57.002 88.7781 55.811 108.835 56.605 110.821C57.399 112.806 56.8035 124.126 56.8035 124.126L83.8252 122.239L77.8444 107.842L78.0429 99.5015L72.6834 89.3739L70.1029 86.5937Z" fill="#33C060"/>
<path d="M57.9945 119.955C57.9945 119.955 53.6275 126.31 55.2155 129.686C56.8035 133.062 67.575 152.663 67.575 152.663L66.1855 170.933L75.7135 170.139L77.3015 150.479L70.6984 134.452L71.8894 132.665L81.8144 144.778L85.3874 165.828L94.9154 164.636L89.7544 133.856L83.7228 121.993L57.9945 119.955Z" fill="#2F2E41"/>
<path d="M57.0614 74.4326C59.0939 74.4326 60.7416 72.7843 60.7416 70.751C60.7416 68.7177 59.0939 67.0693 57.0614 67.0693C55.029 67.0693 53.3813 68.7177 53.3813 70.751C53.3813 72.7843 55.029 74.4326 57.0614 74.4326Z" fill="#2F2E41"/>
<path d="M65.5602 84.3997C69.9864 84.3997 73.5746 80.81 73.5746 76.382C73.5746 71.9539 69.9864 68.3643 65.5602 68.3643C61.1339 68.3643 57.5458 71.9539 57.5458 76.382C57.5458 80.81 61.1339 84.3997 65.5602 84.3997Z" fill="#FFB6B6"/>
<path d="M63.0191 85.1719C62.1673 85.6233 59.7705 83.966 58.9129 81.7453C58.3613 80.3167 57.02 80.5544 56.1641 78.7728C55.6653 77.7346 57.1546 76.7191 56.909 75.8215C56.4639 74.1951 57.0219 72.7401 57.093 72.5618C57.7067 71.0231 58.6113 71.0589 59.3407 69.2678C59.7799 68.1895 59.4982 68.0633 59.8673 67.5116C60.9327 65.9196 64.0239 65.8591 66.2041 66.6119C66.9585 66.8725 68.7758 65.4764 70.251 66.4878C71.989 67.6793 73.1453 71.1139 72.8793 71.7432C72.7176 72.1256 71.8178 71.736 69.9464 72.0303C68.2137 72.3027 70.5005 73.5978 68.5506 74.0392C66.2449 74.5613 65.5503 74.0849 64.9113 74.8146C64.2358 75.5861 64.1109 77.1475 64.7273 78.0743C65.0331 78.5342 65.4275 78.6965 65.3781 79.0166C65.2879 79.601 64.769 79.2833 64.5989 79.9033C64.4009 80.6244 66.0433 81.5699 65.9005 81.788C65.8718 81.8319 65.7488 81.8795 64.1451 81.2612C63.5047 81.0143 63.2578 80.8011 63.186 80.88C63.0697 81.0076 62.4939 82.288 63.1481 82.8326C64.1663 83.6801 63.4606 84.0167 63.9247 84.6803C64.4036 85.365 63.5605 84.885 63.0191 85.1719Z" fill="#2F2E41"/>
<path d="M64.8956 131.497C66.1747 133.567 68.2789 134.584 69.5955 133.77C70.912 132.955 70.9421 130.617 69.6624 128.547C69.1625 127.713 68.4703 127.011 67.6435 126.499L62.1135 117.798L58.0873 120.481L63.9663 128.774C64.0543 129.743 64.373 130.677 64.8956 131.497Z" fill="#FFB6B6"/>
<path d="M57.5975 89.1752C57.5975 89.1752 48.268 90.9625 49.062 95.5298C49.856 100.097 54.8678 118.71 54.8678 118.71L58.987 123.331L63.9495 119.757L59.781 103.076L57.5975 89.1752Z" fill="#33C060"/>
<path d="M277.957 92.9895C277.59 92.3706 276.003 93.0332 275.711 92.4716C275.421 91.9119 276.895 91.0592 277.738 89.1113C277.89 88.76 278.847 86.5463 278.138 85.8632C276.795 84.5685 270.647 89.9116 268.496 88.1631C268.024 87.7794 267.694 87.0133 266.265 85.7696C265.696 85.2748 265.352 85.0514 265.02 85.1345C264.548 85.2525 264.51 85.8845 264.004 87.1273C263.245 88.9911 262.796 88.8785 262.354 90.3655C262.025 91.4693 262.1 92.1111 261.714 92.2361C261.167 92.4131 260.664 91.2422 259.971 91.3471C259.264 91.4541 258.836 92.8173 258.701 93.838C258.448 95.7534 259.151 97.0173 259.541 98.3463C259.964 99.7906 260.216 101.987 259.238 105.096L249.557 132.382C251.694 126.783 257.882 111.435 260.483 105.731C261.233 104.085 262.062 102.415 263.764 101.756C265.402 101.121 267.652 101.5 270.521 100.809C270.856 100.728 271.786 100.491 271.903 99.9443C271.999 99.4921 271.453 99.2396 271.537 98.816C271.649 98.2478 272.725 98.2409 274.046 97.5854C274.978 97.1231 275.559 96.5734 276.058 96.1007C276.208 95.9581 278.446 93.8133 277.957 92.9895Z" fill="#E6E6E6"/>
<path d="M239.872 107.354C239.463 107.355 239.33 108.326 238.97 108.307C238.612 108.288 238.619 107.318 237.906 106.343C237.778 106.167 236.968 105.058 236.428 105.209C235.405 105.495 236.253 110.055 234.774 110.607C234.45 110.728 233.979 110.669 232.956 111.012C232.55 111.148 232.341 111.252 232.286 111.44C232.207 111.706 232.507 111.906 232.97 112.513C233.666 113.424 233.481 113.612 234.083 114.258C234.529 114.738 234.866 114.886 234.816 115.112C234.745 115.432 234.025 115.341 233.877 115.711C233.725 116.089 234.271 116.693 234.732 117.053C235.599 117.73 236.422 117.75 237.186 117.942C238.017 118.151 239.167 118.661 240.411 120.038L251.004 132.664C248.874 130 243.129 122.533 241.081 119.61C240.49 118.767 239.91 117.878 240.078 116.852C240.239 115.865 241.074 114.869 241.563 113.261C241.62 113.073 241.772 112.549 241.537 112.333C241.343 112.155 241.062 112.351 240.878 112.187C240.632 111.968 240.939 111.438 240.998 110.6C241.041 110.009 240.938 109.566 240.85 109.184C240.824 109.069 240.417 107.352 239.872 107.354Z" fill="#E6E6E6"/>
<path d="M248.041 109.188L247.795 106.985L247.907 106.818C248.429 106.046 248.695 105.291 248.698 104.575C248.698 104.462 248.693 104.348 248.688 104.232C248.667 103.772 248.64 103.201 248.938 102.535C249.105 102.164 249.574 101.304 250.279 101.411C250.468 101.437 250.612 101.524 250.721 101.626C250.737 101.601 250.753 101.575 250.771 101.548C250.991 101.213 251.164 101.069 251.332 100.931C251.461 100.824 251.594 100.715 251.802 100.455C251.893 100.341 251.965 100.241 252.025 100.157C252.207 99.9031 252.445 99.5999 252.865 99.6052C253.314 99.6264 253.549 99.9977 253.705 100.243C253.983 100.682 254.109 100.998 254.193 101.207C254.223 101.284 254.257 101.37 254.275 101.397C254.42 101.609 255.595 101.411 256.038 101.338C257.033 101.172 257.894 101.029 258.248 101.656C258.503 102.105 258.314 102.699 257.67 103.468C257.47 103.707 257.257 103.889 257.067 104.032C257.224 104.125 257.365 104.269 257.422 104.495C257.556 105.029 257.097 105.564 256.058 106.087C255.8 106.218 255.453 106.393 254.967 106.477C254.738 106.516 254.531 106.525 254.355 106.531C254.351 106.633 254.327 106.744 254.265 106.857C254.082 107.193 253.703 107.352 253.131 107.314C252.501 107.281 251.983 107.161 251.526 107.055C251.126 106.964 250.782 106.886 250.512 106.904C250.011 106.945 249.625 107.346 249.172 107.866L248.041 109.188Z" fill="#E6E6E6"/>
<path d="M249.186 96.0703L247.118 96.8678L246.928 96.8011C246.049 96.4923 245.252 96.4263 244.559 96.6049C244.449 96.6332 244.34 96.6672 244.229 96.7018C243.79 96.8389 243.245 97.0096 242.525 96.8904C242.124 96.823 241.174 96.5872 241.098 95.878C241.076 95.6875 241.123 95.5265 241.195 95.3951C241.166 95.3861 241.137 95.3767 241.106 95.3667C240.726 95.2392 240.543 95.1074 240.367 94.9804C240.231 94.8828 240.092 94.782 239.788 94.6462C239.655 94.5865 239.54 94.543 239.443 94.5061C239.151 94.3941 238.798 94.2405 238.696 93.8327C238.603 93.3931 238.902 93.0715 239.1 92.8584C239.454 92.4781 239.727 92.276 239.909 92.1421C239.975 92.0933 240.05 92.038 240.071 92.0143C240.24 91.8204 239.749 90.7332 239.567 90.323C239.154 89.4024 238.797 88.6058 239.314 88.1034C239.684 87.7436 240.306 87.7757 241.212 88.2031C241.495 88.3364 241.725 88.4966 241.911 88.6436C241.961 88.4681 242.065 88.2958 242.268 88.1835C242.751 87.9184 243.384 88.2267 244.154 89.0988C244.346 89.3152 244.603 89.6069 244.807 90.0564C244.903 90.2682 244.965 90.4654 245.015 90.6348C245.115 90.6125 245.228 90.6076 245.353 90.639C245.724 90.7304 245.974 91.0573 246.082 91.6207C246.21 92.2382 246.225 92.7704 246.24 93.2396C246.252 93.6492 246.265 94.0018 246.351 94.2586C246.517 94.733 247.002 95.0048 247.62 95.3113L249.186 96.0703Z" fill="#E6E6E6"/>
<path d="M248.041 89.5795L247.795 87.3763L247.907 87.2093C248.429 86.4369 248.695 85.6827 248.698 84.9667C248.698 84.8529 248.693 84.739 248.688 84.6231C248.667 84.1635 248.64 83.5922 248.938 82.9262C249.105 82.555 249.574 81.6954 250.279 81.8018C250.468 81.8284 250.612 81.9156 250.721 82.0177C250.737 81.9922 250.753 81.9666 250.771 81.939C250.991 81.6039 251.164 81.4603 251.332 81.322C251.461 81.2156 251.594 81.106 251.802 80.8464C251.893 80.7326 251.965 80.6326 252.025 80.5485C252.207 80.2943 252.445 79.9911 252.865 79.9964C253.314 80.0177 253.549 80.389 253.705 80.6347C253.983 81.073 254.109 81.389 254.193 81.5986C254.223 81.6752 254.257 81.7613 254.275 81.7879C254.42 82.0007 255.595 81.8017 256.038 81.7294C257.033 81.5634 257.894 81.4198 258.248 82.0475C258.503 82.4964 258.314 83.09 257.67 83.8592C257.47 84.0986 257.257 84.2805 257.067 84.4231C257.224 84.5167 257.365 84.6603 257.422 84.8858C257.556 85.4199 257.097 85.955 256.058 86.4784C255.8 86.6093 255.453 86.7838 254.967 86.8678C254.738 86.9072 254.531 86.9167 254.355 86.922C254.351 87.0242 254.327 87.1348 254.265 87.2486C254.082 87.5838 253.703 87.7433 253.131 87.705C252.501 87.672 251.983 87.5518 251.526 87.4465C251.126 87.355 250.782 87.2774 250.512 87.2955C250.011 87.3359 249.625 87.737 249.172 88.2572L248.041 89.5795Z" fill="#E6E6E6"/>
<path d="M250.295 132.346L249.833 132.057L249.295 132.118C249.287 132.068 249.257 131.953 249.213 131.774C248.972 130.789 248.238 127.791 247.625 123.069C247.198 119.774 246.956 116.385 246.906 112.997C246.856 109.603 247.017 107.034 247.145 104.969C247.243 103.412 247.361 101.929 247.477 100.484C247.785 96.6243 248.076 92.9785 247.859 88.9423C247.812 88.0412 247.711 86.1656 246.616 84.1698C245.98 83.0124 245.105 81.9847 244.014 81.1166L244.693 80.2634C245.897 81.223 246.865 82.3613 247.571 83.6465C248.785 85.8592 248.895 87.9029 248.947 88.8848C249.167 92.9923 248.873 96.6732 248.562 100.57C248.447 102.009 248.329 103.486 248.232 105.037C248.105 107.083 247.946 109.63 247.995 112.98C248.044 116.328 248.283 119.675 248.705 122.929C249.31 127.591 250.034 130.544 250.271 131.514C250.398 132.032 250.424 132.141 250.295 132.346Z" fill="#E6E6E6"/>
<path d="M242.017 82.8475C241.972 82.8475 241.927 82.8465 241.882 82.8433C240.954 82.7932 240.096 82.2379 239.329 81.1932C238.969 80.7017 238.785 80.1411 238.419 79.023C238.362 78.8506 238.085 77.9762 237.917 76.773C237.807 75.9868 237.821 75.6581 237.977 75.3676C238.15 75.0442 238.429 74.8187 238.744 74.6666C238.73 74.5623 238.741 74.4548 238.786 74.3453C238.972 73.891 239.465 73.9506 239.732 73.9793C239.867 73.9963 240.036 74.0187 240.218 74.0091C240.504 73.9953 240.658 73.9102 240.89 73.7825C241.113 73.6601 241.39 73.508 241.801 73.424C242.612 73.2548 243.291 73.4846 243.514 73.5601C244.692 73.9527 245.273 74.8687 245.945 75.9293C246.079 76.1421 246.539 76.9166 246.842 77.9783C247.061 78.7442 247.031 79.0847 246.965 79.3379C246.831 79.8581 246.514 80.156 245.711 80.8134C244.872 81.5017 244.451 81.8464 244.089 82.056C243.247 82.5422 242.719 82.8475 242.017 82.8475Z" fill="#E6E6E6"/>
<path d="M193.978 113.105H108.536C105.097 113.105 102.298 110.306 102.298 106.865V42.23C102.298 38.7893 105.097 35.9896 108.536 35.9896H193.978C197.417 35.9896 200.216 38.7893 200.216 42.23V106.865C200.216 110.306 197.417 113.105 193.978 113.105Z" fill="white"/>
<path d="M193.978 113.105H108.536C105.097 113.105 102.298 110.306 102.298 106.865V42.23C102.298 38.7893 105.097 35.9896 108.536 35.9896H193.978C197.417 35.9896 200.216 38.7893 200.216 42.23V106.865C200.216 110.306 197.417 113.105 193.978 113.105ZM108.536 37.0317C105.671 37.0317 103.34 39.3637 103.34 42.23V106.865C103.34 109.731 105.671 112.063 108.536 112.063H193.978C196.843 112.063 199.174 109.731 199.174 106.865V42.23C199.174 39.3637 196.843 37.0317 193.978 37.0317H108.536Z" fill="#3F3D56"/>
<path d="M184.591 43.8054C185.454 43.8054 186.153 43.1055 186.153 42.2422C186.153 41.3789 185.454 40.6791 184.591 40.6791C183.728 40.6791 183.028 41.3789 183.028 42.2422C183.028 43.1055 183.728 43.8054 184.591 43.8054Z" fill="#3F3D56"/>
<path d="M188.757 43.8054C189.62 43.8054 190.32 43.1055 190.32 42.2422C190.32 41.3789 189.62 40.6791 188.757 40.6791C187.894 40.6791 187.195 41.3789 187.195 42.2422C187.195 43.1055 187.894 43.8054 188.757 43.8054Z" fill="#3F3D56"/>
<path d="M192.924 43.8054C193.787 43.8054 194.486 43.1055 194.486 42.2422C194.486 41.3789 193.787 40.6791 192.924 40.6791C192.061 40.6791 191.361 41.3789 191.361 42.2422C191.361 43.1055 192.061 43.8054 192.924 43.8054Z" fill="#3F3D56"/>
<path d="M111.153 67.5133C110.722 67.5133 110.371 67.8639 110.371 68.2949C110.371 68.505 110.452 68.6994 110.6 68.8429C110.748 68.995 110.943 69.0765 111.153 69.0765H191.882C192.313 69.0765 192.664 68.7259 192.664 68.2949C192.664 68.0847 192.582 67.8904 192.435 67.7469C192.287 67.5947 192.092 67.5133 191.882 67.5133H111.153Z" fill="#E6E6E6"/>
<path d="M177.299 67.2527V69.337H111.153C110.866 69.337 110.606 69.2223 110.418 69.0295C110.226 68.8419 110.111 68.5814 110.111 68.2948C110.111 67.7217 110.58 67.2527 111.153 67.2527H177.299Z" fill="#33C060"/>
<path d="M190.58 63.3449H180.163C179.015 63.3449 178.08 62.4101 178.08 61.2607C178.08 60.1112 179.015 59.1765 180.163 59.1765H190.58C191.729 59.1765 192.664 60.1112 192.664 61.2607C192.664 62.4101 191.729 63.3449 190.58 63.3449Z" fill="#E6E6E6"/>
<path d="M122.351 52.4028H111.934C110.785 52.4028 109.85 51.4681 109.85 50.3186C109.85 49.1691 110.785 48.2344 111.934 48.2344H122.351C123.499 48.2344 124.434 49.1691 124.434 50.3186C124.434 51.4681 123.499 52.4028 122.351 52.4028Z" fill="#E6E6E6"/>
<path d="M111.153 90.9606C110.722 90.9606 110.371 91.3112 110.371 91.7422C110.371 91.9524 110.452 92.1467 110.6 92.2902C110.748 92.4424 110.943 92.5238 111.153 92.5238H191.882C192.313 92.5238 192.664 92.1732 192.664 91.7422C192.664 91.5321 192.582 91.3377 192.435 91.1942C192.287 91.0421 192.092 90.9606 191.882 90.9606H111.153Z" fill="#E6E6E6"/>
<path d="M137.194 90.7001V92.7843H111.153C110.866 92.7843 110.606 92.6697 110.418 92.4769C110.226 92.2893 110.111 92.0288 110.111 91.7422C110.111 91.1691 110.58 90.7001 111.153 90.7001H137.194Z" fill="#33C060"/>
<path d="M190.58 86.7922H180.163C179.015 86.7922 178.08 85.8575 178.08 84.708C178.08 83.5585 179.015 82.6238 180.163 82.6238H190.58C191.729 82.6238 192.664 83.5585 192.664 84.708C192.664 85.8575 191.729 86.7922 190.58 86.7922Z" fill="#E6E6E6"/>
</g>
<defs>
<clipPath id="clip0_39_696">
<rect width="325.683" height="200" fill="white" transform="translate(7)"/>
</clipPath>
</defs>
</svg>
