<svg width="400" height="241" viewBox="0 0 400 241" fill="none" xmlns="http://www.w3.org/2000/svg">
<g clip-path="url(#clip0_765_3277)">
<path d="M67.1234 228.528C66.8029 228.543 66.4856 228.459 66.2145 228.287C65.9434 228.116 65.7317 227.865 65.6079 227.569C65.4841 227.273 65.4543 226.946 65.5226 226.632C65.5908 226.319 65.7537 226.034 65.9893 225.816L66.0966 225.39C66.0824 225.356 66.0682 225.322 66.0539 225.288C65.7311 224.525 65.1901 223.875 64.4988 223.419C63.8076 222.963 62.997 222.721 62.1688 222.724C61.3407 222.727 60.5319 222.975 59.8441 223.436C59.1563 223.897 58.6201 224.551 58.3029 225.316C57.0352 228.37 55.4211 231.428 55.0237 234.657C54.8487 236.083 54.9225 237.53 55.2419 238.932C52.2644 232.437 50.7183 225.377 50.7083 218.232C50.7077 216.439 50.8073 214.648 51.0067 212.866C51.1715 211.405 51.4001 209.955 51.6926 208.515C53.2885 200.702 56.7149 193.379 61.6905 187.147C64.0987 185.833 66.0463 183.812 67.2707 181.358C67.7143 180.475 68.0278 179.533 68.2015 178.561C67.9299 178.596 67.1772 174.459 67.3821 174.205C67.0035 173.631 66.3259 173.345 65.9124 172.785C63.8561 169.997 61.023 170.483 59.544 174.272C56.3845 175.867 56.3539 178.511 58.2926 181.055C59.5259 182.673 59.6954 184.862 60.7776 186.595C60.6662 186.737 60.5505 186.875 60.4391 187.018C58.4039 189.635 56.63 192.445 55.143 195.408C55.5046 192.089 55.073 188.731 53.8836 185.611C52.6782 182.703 50.4189 180.254 48.4293 177.74C46.0395 174.72 41.1389 176.038 40.7178 179.866C40.7138 179.903 40.7098 179.94 40.7059 179.977C41.0014 180.144 41.2907 180.321 41.5738 180.508C41.9293 180.745 42.2049 181.085 42.3642 181.482C42.5236 181.878 42.5594 182.314 42.4669 182.732C42.3744 183.149 42.1579 183.529 41.8459 183.821C41.5338 184.114 41.1407 184.305 40.718 184.37L40.6747 184.377C40.78 185.442 40.9661 186.498 41.2314 187.535C38.679 197.405 44.1895 201.001 52.0577 201.162C52.2314 201.251 52.4007 201.34 52.5744 201.425C51.0804 205.659 50.1432 210.069 49.7865 214.545C49.5846 217.185 49.5965 219.838 49.8222 222.476L49.8088 222.383C49.2387 219.449 47.6735 216.801 45.3776 214.888C41.9675 212.086 37.1498 211.055 33.4709 208.803C33.08 208.552 32.6254 208.418 32.1607 208.417C31.6961 208.416 31.2409 208.548 30.8487 208.797C30.4565 209.046 30.1437 209.402 29.9473 209.823C29.7508 210.244 29.6788 210.712 29.7399 211.173C29.7448 211.206 29.7498 211.239 29.7549 211.271C30.3033 211.495 30.8373 211.752 31.3537 212.042C31.6492 212.209 31.9385 212.386 32.2215 212.573C32.5771 212.81 32.8526 213.15 33.012 213.547C33.1713 213.943 33.2071 214.379 33.1146 214.797C33.0221 215.214 32.8057 215.594 32.4936 215.886C32.1815 216.179 31.7884 216.37 31.3658 216.435L31.3225 216.442C31.2913 216.446 31.2646 216.451 31.2335 216.455C32.1705 218.693 33.4856 220.752 35.1213 222.543C36.7172 231.16 43.5719 231.977 50.9043 229.468H50.9088C51.7133 232.964 52.8789 236.367 54.3869 239.622H66.812C66.8566 239.484 66.8967 239.341 66.9368 239.203C65.7867 239.276 64.632 239.207 63.4987 238.999C64.4205 237.867 65.3424 236.727 66.2643 235.596C66.2848 235.575 66.3042 235.553 66.3222 235.529C66.7898 234.95 67.2619 234.376 67.7295 233.797L67.7297 233.796C67.7546 232.022 67.5505 230.251 67.1234 228.528Z" fill="#F2F2F2"/>
<path d="M326.641 228.528C326.961 228.543 327.278 228.459 327.549 228.287C327.821 228.116 328.032 227.865 328.156 227.569C328.28 227.273 328.31 226.946 328.241 226.632C328.173 226.319 328.01 226.034 327.775 225.816L327.667 225.39C327.682 225.356 327.696 225.322 327.71 225.288C328.033 224.525 328.574 223.875 329.265 223.419C329.956 222.963 330.767 222.721 331.595 222.724C332.423 222.727 333.232 222.975 333.92 223.436C334.608 223.897 335.144 224.551 335.461 225.316C336.729 228.37 338.343 231.428 338.74 234.657C338.915 236.083 338.841 237.53 338.522 238.932C341.5 232.437 343.046 225.377 343.056 218.232C343.056 216.439 342.957 214.648 342.757 212.866C342.593 211.405 342.364 209.955 342.071 208.515C340.476 200.702 337.049 193.379 332.073 187.147C329.665 185.833 327.718 183.812 326.493 181.358C326.05 180.475 325.736 179.533 325.562 178.561C325.834 178.596 326.587 174.459 326.382 174.205C326.76 173.631 327.438 173.345 327.852 172.785C329.908 169.997 332.741 170.483 334.22 174.272C337.38 175.867 337.41 178.511 335.471 181.055C334.238 182.673 334.069 184.862 332.986 186.595C333.098 186.737 333.214 186.875 333.325 187.018C335.36 189.635 337.134 192.445 338.621 195.408C338.259 192.089 338.691 188.731 339.88 185.611C341.086 182.703 343.345 180.254 345.335 177.74C347.725 174.72 352.625 176.038 353.046 179.866C353.05 179.903 353.054 179.94 353.058 179.977C352.763 180.144 352.473 180.321 352.19 180.508C351.835 180.745 351.559 181.085 351.4 181.482C351.24 181.878 351.205 182.314 351.297 182.732C351.39 183.149 351.606 183.529 351.918 183.821C352.23 184.114 352.623 184.305 353.046 184.37L353.089 184.377C352.984 185.442 352.798 186.498 352.533 187.535C355.085 197.405 349.574 201.001 341.706 201.162C341.533 201.251 341.363 201.34 341.19 201.425C342.684 205.659 343.621 210.069 343.977 214.545C344.179 217.185 344.167 219.838 343.942 222.476L343.955 222.383C344.525 219.449 346.09 216.801 348.386 214.888C351.796 212.086 356.614 211.055 360.293 208.803C360.684 208.552 361.139 208.418 361.603 208.417C362.068 208.416 362.523 208.548 362.915 208.797C363.308 209.046 363.62 209.402 363.817 209.823C364.013 210.244 364.085 210.712 364.024 211.173C364.019 211.206 364.014 211.239 364.009 211.271C363.461 211.495 362.927 211.752 362.41 212.042C362.115 212.209 361.826 212.386 361.542 212.573C361.187 212.81 360.911 213.15 360.752 213.547C360.593 213.943 360.557 214.379 360.649 214.797C360.742 215.214 360.958 215.594 361.27 215.886C361.582 216.179 361.976 216.37 362.398 216.435L362.442 216.442C362.473 216.446 362.499 216.451 362.531 216.455C361.594 218.693 360.278 220.752 358.643 222.543C357.047 231.16 350.192 231.977 342.86 229.468H342.855C342.051 232.964 340.885 236.367 339.377 239.622H326.952C326.907 239.484 326.867 239.341 326.827 239.203C327.977 239.276 329.132 239.207 330.265 238.999C329.343 237.867 328.422 236.727 327.5 235.596C327.479 235.575 327.46 235.553 327.442 235.529C326.974 234.95 326.502 234.376 326.035 233.797L326.034 233.796C326.009 232.022 326.213 230.251 326.641 228.528Z" fill="#F2F2F2"/>
<path d="M81.4141 239.344H101.464C104.893 227.797 101.483 200.509 106.003 189.356C114.674 167.971 125.753 145.407 146.43 134.965C155.259 130.506 164.885 128.765 174.716 128.86C188.296 128.988 202.259 132.634 215.041 137.465C220.27 139.437 225.452 141.605 230.612 143.821C250.056 152.176 269.288 161.276 290.197 163.736C316.656 166.846 347.764 155.008 354.99 129.51C360.506 109.988 350.573 89.7213 340.156 72.2866C329.739 54.8519 318.094 36.1974 319.996 16.0116C320.003 15.9439 320.01 15.8693 320.024 15.8016C320.739 8.55121 325.068 3.34058 331.116 0H304.787C304.439 18.8306 315.333 35.4521 325.137 51.8636C335.554 69.2916 345.487 89.5655 339.972 109.087C332.745 134.579 272.906 104.697 246.447 101.58C238.975 100.706 250.845 103.816 243.72 101.58C232.547 98.0772 231.308 130.208 220.434 125.492C213.664 122.551 206.888 119.631 200.022 117.036C197.18 115.958 194.275 114.948 191.337 114.013C191.33 114.013 191.33 114.013 191.323 114.007C171.593 107.759 150.016 105.327 131.786 114.359C131.664 114.42 131.534 114.481 131.411 114.542C110.734 124.977 99.6555 147.541 90.9837 168.926C83.8185 186.605 84.9455 220.696 81.4141 239.344Z" fill="#F2F2F2"/>
<path d="M192.964 238.752C243.823 238.752 285.052 197.523 285.052 146.664C285.052 95.8046 243.823 54.5751 192.964 54.5751C142.105 54.5751 100.875 95.8046 100.875 146.664C100.875 197.523 142.105 238.752 192.964 238.752Z" fill="white"/>
<path d="M192.702 239.344C101.59 241.437 99.5918 198.15 99.5918 146.663C99.5918 95.1779 141.479 53.2906 192.965 53.2906C244.451 53.2906 286.339 95.1779 286.339 146.663C286.339 198.15 244.188 239.344 192.702 239.344ZM192.965 55.8599C142.895 55.8599 103.004 96.6013 102.161 146.663C101.377 193.227 150.843 251.333 192.965 237.468C215.554 212.59 279.418 185.796 283.769 146.663C289.302 96.9009 243.035 55.8599 192.965 55.8599Z" fill="#3F3D56"/>
<path d="M180.402 194.592C178.812 194.592 177.243 194.221 175.821 193.51C174.399 192.799 173.162 191.766 172.208 190.493L147.085 156.995C146.277 155.919 145.689 154.694 145.354 153.391C145.02 152.088 144.946 150.731 145.136 149.399C145.326 148.067 145.777 146.785 146.462 145.627C147.147 144.47 148.054 143.458 149.131 142.651C150.207 141.843 151.432 141.256 152.736 140.922C154.039 140.589 155.396 140.515 156.728 140.706C158.06 140.896 159.341 141.347 160.499 142.033C161.656 142.719 162.667 143.627 163.474 144.704L179.911 166.617L222.126 103.296C223.633 101.037 225.976 99.4689 228.64 98.937C231.303 98.405 234.069 98.9525 236.328 100.459C238.588 101.966 240.157 104.308 240.69 106.971C241.224 109.634 240.678 112.4 239.172 114.66L188.926 190.03C188.017 191.393 186.795 192.518 185.361 193.311C183.927 194.104 182.325 194.542 180.687 194.588C180.592 194.59 180.497 194.592 180.402 194.592Z" fill="#F2F2F2"/>
<path d="M2.93576e-06 239.415C-0.000256836 239.502 0.0167254 239.589 0.0499676 239.669C0.0832099 239.75 0.132059 239.823 0.193704 239.885C0.255349 239.946 0.328569 239.995 0.409161 240.028C0.489752 240.062 0.576128 240.079 0.663304 240.078H399.337C399.513 240.078 399.681 240.008 399.806 239.884C399.93 239.76 400 239.591 400 239.415C400 239.239 399.93 239.07 399.806 238.946C399.681 238.822 399.513 238.752 399.337 238.752H0.663304C0.576129 238.752 0.48976 238.769 0.409169 238.802C0.328578 238.835 0.255357 238.884 0.193713 238.946C0.132068 239.007 0.0832194 239.08 0.0499761 239.161C0.0167328 239.242 -0.000253877 239.328 2.93576e-06 239.415Z" fill="#CCCCCC"/>
<path d="M251.769 232.913H246.377L243.812 212.114L251.771 212.115L251.769 232.913Z" fill="#FFB6B6"/>
<path d="M251.961 238.538L235.379 238.538V238.328C235.379 236.616 236.059 234.975 237.269 233.765C238.48 232.554 240.121 231.874 241.833 231.874L244.862 229.576L250.513 231.875L251.961 231.875L251.961 238.538Z" fill="#2F2E41"/>
<path d="M228.328 207.136L223.347 209.202L213.01 190.972L220.361 187.924L228.328 207.136Z" fill="#FFB6B6"/>
<path d="M230.659 212.26L215.342 218.611L215.262 218.418C214.606 216.836 214.605 215.06 215.26 213.478C215.914 211.896 217.17 210.639 218.751 209.983L220.669 206.701L226.769 206.659L228.107 206.104L230.659 212.26Z" fill="#2F2E41"/>
<path d="M257.936 114.598L219.668 118.596L214.55 135.837L196.822 164.325C196.822 164.325 209.192 185.145 208.031 184.918C206.869 184.692 209.191 190.367 210.817 190.037C212.443 189.708 214.134 193.408 213.01 194.066C211.885 194.724 216.396 200.287 216.396 200.287L223.289 194.1C224.755 183.041 222.983 173.198 216.672 165.061L236.421 143.74L240.166 142.186L243.138 221.302L254.133 221.482C257.167 205.876 258.691 191.829 256.32 181.809C256.32 181.809 256.66 151.706 257.961 152.036C259.261 152.365 258.159 148.443 258.159 148.443C258.159 148.443 257.02 145.103 258.419 143.718C259.818 142.332 258.945 134.183 258.945 134.183C261.257 126.471 260.561 120.104 257.936 114.598Z" fill="#2F2E41"/>
<path d="M228.512 50.9751L239.091 48.2338L244.03 41.4229L255.757 42.8646L258.254 52.1547L266.603 57.001C266.603 57.001 261.988 105.81 263.086 108.49C264.183 111.17 268.119 110.949 264.758 114.403C261.397 117.858 260.951 116.467 261.731 120.228C262.511 123.989 268.197 127.97 261.731 127.93C255.266 127.891 216.251 127.333 217.365 122.874C218.48 118.416 218.462 119.548 220.143 116.752C221.824 113.957 222.955 115.519 222.39 111.394C221.824 107.268 222.381 104.482 222.381 102.252C222.381 100.023 224.249 79.7635 224.249 79.7635L228.512 50.9751Z" fill="#E6E6E6"/>
<path d="M249.863 40.1639C256.727 40.1639 262.291 34.5998 262.291 27.7361C262.291 20.8725 256.727 15.3083 249.863 15.3083C243 15.3083 237.436 20.8725 237.436 27.7361C237.436 34.5998 243 40.1639 249.863 40.1639Z" fill="#FFB6B6"/>
<path d="M236.842 20.2148C237.933 21.0967 237.683 25.3854 238.899 24.6863C240.115 23.9873 240.368 22.7355 241.768 22.7224C242.91 22.7854 243.986 23.2727 244.787 24.0886C244.936 24.2233 245.078 24.3645 245.216 24.5041C245.342 24.4599 245.466 24.4199 245.597 24.3871C246.579 24.1473 247.615 24.2933 248.493 24.7949C247.683 24.8528 246.911 25.1639 246.287 25.6844C246.554 25.9839 246.826 26.2851 247.111 26.5634C249.491 28.8959 254.371 26.412 257.652 25.8515C254.919 28.8356 255.458 30.5015 256.138 34.49L256.141 34.7079C256.281 33.7881 259.227 33.8339 258.741 35.0545C258.131 36.2602 257.368 37.3821 256.47 38.3923C260.484 35.6115 263.725 31.7784 264.441 27.1482C264.588 26.1747 264.875 25.1814 264.597 24.2322C264.48 23.7522 264.206 23.3248 263.82 23.0168C263.433 22.7087 262.956 22.5373 262.462 22.5294C262.909 21.1091 262.963 19.5941 262.618 18.1456C262.273 16.6971 261.541 15.3691 260.502 14.303C259.462 13.2368 258.153 12.4722 256.714 12.0906C255.275 11.7089 253.759 11.7244 252.328 12.1354C251.022 12.5994 249.749 13.149 248.516 13.7807C247.271 14.4149 245.862 14.6535 244.478 14.4646C243.616 14.2865 242.743 13.84 241.898 14.0928C240.919 14.3865 240.498 15.4207 240.105 16.4191C240.842 16.6881 241.482 17.1708 241.943 17.8053C241.181 17.5242 240.35 17.4904 239.568 17.7088C239.554 17.7113 239.54 17.7152 239.526 17.7203C238.639 19.309 238.588 19.6986 236.842 20.2148Z" fill="#2F2E41"/>
<path d="M240.941 44.9047C234.575 44.3922 228.763 49.2603 226.113 55.0706C223.463 60.8809 223.29 67.4722 223.161 73.857L222.761 93.7037C222.702 96.6406 222.643 99.578 222.497 102.512C222.421 105.367 222.062 108.207 221.425 110.99C220.127 116.099 217.272 120.651 214.459 125.107C221.661 127.284 228.986 129.034 236.395 130.346C240.095 118.379 243.837 106.068 242.928 93.5746C242.446 86.9637 240.668 80.5093 239.992 73.9154C239.035 64.5767 240.304 55.1692 241.57 45.8674" fill="#3F3D56"/>
<path d="M256.392 46.021C262.697 47.0348 267.186 53.1439 268.381 59.4172C269.575 65.6906 268.179 72.1346 266.787 78.3673C265.346 84.8253 263.904 91.2833 262.463 97.7412C261.823 100.608 261.183 103.476 260.628 106.36C260.089 109.162 262.346 112.757 262.372 115.61C262.419 120.88 261.396 125.221 263.07 130.218C255.557 130.623 248.026 130.583 240.518 130.098C239.765 117.594 239.054 104.747 242.904 92.827C244.942 86.5195 248.201 80.6719 250.424 74.4272C253.571 65.5829 254.573 56.1432 255.552 46.8068" fill="#3F3D56"/>
<path d="M260.594 136.119C260.126 135.303 259.995 134.336 260.228 133.425C260.462 132.513 261.042 131.729 261.845 131.239C262.009 131.142 262.182 131.058 262.36 130.99L261.556 103.615L270.266 101.398L266.945 133.291C267.172 134.053 267.141 134.869 266.855 135.612C266.57 136.354 266.047 136.982 265.368 137.396C264.979 137.628 264.548 137.78 264.1 137.846C263.652 137.911 263.196 137.888 262.757 137.777C262.318 137.666 261.906 137.47 261.543 137.199C261.18 136.929 260.874 136.59 260.642 136.201C260.626 136.174 260.61 136.146 260.594 136.119Z" fill="#FFB6B6"/>
<path d="M259.959 56.9574C259.959 56.9574 266.038 51.8162 271.154 62.0958C276.269 72.3755 273.411 95.8594 272.69 97.1127C271.97 98.3661 271.531 96.6201 271.925 99.961C272.246 102.678 270.339 102.338 271.023 102.918C272.827 104.447 267.775 104.621 270.37 105.968C272.964 107.315 261.353 107.568 261.353 107.568C261.353 107.568 259.948 106.565 260.924 102.782C261.472 100.658 262.843 99.881 261.38 98.8979C259.917 97.9149 262.891 94.8759 262.893 94.2091C262.895 93.5423 258.256 78.9579 258.256 78.9579L259.959 56.9574Z" fill="#3F3D56"/>
<path d="M209.652 183.594C208.062 183.594 206.493 183.223 205.071 182.512C203.649 181.801 202.412 180.768 201.458 179.495L176.335 145.997C175.527 144.921 174.939 143.696 174.604 142.393C174.27 141.09 174.196 139.733 174.386 138.401C174.576 137.069 175.027 135.787 175.712 134.629C176.397 133.472 177.304 132.46 178.381 131.653C179.457 130.845 180.682 130.258 181.986 129.924C183.289 129.591 184.646 129.517 185.978 129.708C187.31 129.898 188.591 130.349 189.749 131.036C190.906 131.722 191.918 132.629 192.724 133.706L209.161 155.619L251.376 92.2978C252.122 91.1785 253.081 90.2171 254.199 89.4686C255.317 88.72 256.571 88.199 257.89 87.9351C259.209 87.6713 260.567 87.6699 261.887 87.931C263.207 88.192 264.462 88.7104 265.581 89.4566C266.701 90.2028 267.662 91.1622 268.411 92.2799C269.159 93.3977 269.68 94.6519 269.944 95.971C270.208 97.2901 270.209 98.6483 269.948 99.968C269.687 101.288 269.169 102.543 268.422 103.662L218.176 179.032C217.267 180.395 216.045 181.52 214.611 182.313C213.177 183.107 211.575 183.544 209.937 183.59C209.842 183.592 209.747 183.594 209.652 183.594Z" fill="#33C060"/>
<path d="M228.802 131.364C229.315 130.575 229.5 129.617 229.317 128.694C229.134 127.771 228.598 126.956 227.824 126.422C227.665 126.316 227.497 126.223 227.322 126.145L229.638 98.856L221.064 96.1613L222.618 128.189C222.349 128.938 222.335 129.754 222.579 130.512C222.823 131.269 223.31 131.924 223.966 132.375C224.341 132.628 224.763 132.804 225.206 132.894C225.65 132.985 226.107 132.986 226.551 132.9C226.995 132.813 227.418 132.64 227.796 132.39C228.173 132.14 228.498 131.818 228.751 131.443C228.768 131.417 228.785 131.39 228.802 131.364Z" fill="#FFB6B6"/>
<path d="M233.821 52.4145C233.821 52.4145 228.035 46.9452 222.359 56.9264C216.683 66.9076 218.239 90.5136 218.889 91.8049C219.539 93.0961 220.074 91.3771 219.496 94.6911C219.025 97.3863 220.948 97.1524 220.233 97.6935C218.347 99.1204 223.381 99.5734 220.717 100.775C218.052 101.977 229.632 102.871 229.632 102.871C229.632 102.871 231.089 101.947 230.324 98.1162C229.895 95.9649 228.568 95.1131 230.083 94.2124C231.598 93.3118 228.797 90.113 228.832 89.4471C228.866 88.7812 234.305 74.4755 234.305 74.4755L233.821 52.4145Z" fill="#3F3D56"/>
</g>
<defs>
<clipPath id="clip0_765_3277">
<rect width="400" height="240.078" fill="white"/>
</clipPath>
</defs>
</svg>
