<svg width="34" height="34" viewBox="0 0 34 34" fill="none" xmlns="http://www.w3.org/2000/svg">
<circle cx="17" cy="17" r="16.5" stroke="#D9D9D9"/>
<path d="M17 8C21.9707 8 26 12.0293 26 17C26 21.9707 21.9707 26 17 26C15.4095 26.0027 13.8469 25.5818 12.473 24.7805L8.00361 26L9.22041 21.5288C8.41848 20.1544 7.99723 18.5912 8.00001 17C8.00001 12.0293 12.0293 8 17 8ZM13.9328 12.77L13.7528 12.7772C13.6364 12.7852 13.5227 12.8158 13.418 12.8672C13.3204 12.9226 13.2313 12.9917 13.1534 13.0724C13.0454 13.1741 12.9842 13.2623 12.9185 13.3478C12.5856 13.7806 12.4064 14.312 12.4091 14.858C12.4109 15.299 12.5261 15.7283 12.7061 16.1297C13.0742 16.9415 13.6799 17.801 14.4791 18.5975C14.6717 18.7892 14.8607 18.9818 15.0641 19.1609C16.0572 20.0352 17.2406 20.6657 18.5201 21.0023L19.0313 21.0806C19.1978 21.0896 19.3643 21.077 19.5317 21.0689C19.7938 21.0551 20.0496 20.9841 20.2814 20.861C20.3992 20.8001 20.5142 20.734 20.6261 20.663C20.6261 20.663 20.6642 20.6372 20.7386 20.582C20.8601 20.492 20.9348 20.4281 21.0356 20.3228C21.1112 20.2448 21.1742 20.1542 21.2246 20.051C21.2948 19.9043 21.365 19.6244 21.3938 19.3913C21.4154 19.2131 21.4091 19.1159 21.4064 19.0556C21.4028 18.9593 21.3227 18.8594 21.2354 18.8171L20.7116 18.5822C20.7116 18.5822 19.9286 18.2411 19.4498 18.0233C19.3997 18.0015 19.346 17.989 19.2914 17.9864C19.2298 17.9799 19.1676 17.9868 19.1089 18.0065C19.0502 18.0263 18.9964 18.0584 18.9512 18.1007C18.9467 18.0989 18.8864 18.1502 18.2357 18.9386C18.1984 18.9888 18.1469 19.0267 18.0879 19.0475C18.0289 19.0684 17.9651 19.0712 17.9045 19.0556C17.8458 19.04 17.7884 19.0201 17.7326 18.9962C17.621 18.9494 17.5823 18.9314 17.5058 18.899C16.9891 18.6739 16.5108 18.3693 16.0883 17.9963C15.9749 17.8973 15.8696 17.7893 15.7616 17.6849C15.4076 17.3458 15.099 16.9622 14.8436 16.5437L14.7905 16.4582C14.7529 16.4004 14.7221 16.3385 14.6987 16.2737C14.6645 16.1414 14.7536 16.0352 14.7536 16.0352C14.7536 16.0352 14.9723 15.7958 15.074 15.6662C15.173 15.5402 15.2567 15.4178 15.3107 15.3305C15.4169 15.1595 15.4502 14.984 15.3944 14.8481C15.1424 14.2325 14.882 13.6202 14.6132 13.0112C14.5601 12.8906 14.4026 12.8042 14.2595 12.7871C14.2109 12.7811 14.1623 12.7763 14.1137 12.7727C13.9929 12.7658 13.8717 12.767 13.751 12.7763L13.9328 12.77Z" fill="#696B6B"/>
</svg>
