<svg width="32" height="32" viewBox="0 0 32 32" fill="none" xmlns="http://www.w3.org/2000/svg">
<path d="M16.4997 3C17.5648 3 18.585 3.42505 19.3338 4.17765L20.2064 5.05025C20.4872 5.32938 20.8669 5.48621 21.2628 5.48656H22.5129C23.5739 5.48656 24.5915 5.90804 25.3417 6.65827C26.092 7.40851 26.5134 8.42605 26.5134 9.48705V10.7372C26.5134 11.1323 26.671 11.5123 26.9472 11.7911L27.8199 12.6637C28.1935 13.0352 28.49 13.477 28.6924 13.9634C28.8949 14.4499 28.9992 14.9716 28.9994 15.4985C28.9996 16.0254 28.8958 16.5472 28.6938 17.0339C28.4918 17.5205 28.1956 17.9625 27.8224 18.3344L26.9497 19.207C26.6706 19.4878 26.5138 19.8675 26.5134 20.2634V21.5135C26.5134 22.5745 26.092 23.5921 25.3417 24.3423C24.5915 25.0926 23.5739 25.514 22.5129 25.514H21.2628C20.8681 25.5144 20.4895 25.6702 20.2089 25.9478L19.3363 26.8204C18.9648 27.1941 18.523 27.4906 18.0366 27.693C17.5501 27.8954 17.0284 27.9998 16.5015 28C15.9746 28.0002 15.4528 27.8964 14.9661 27.6944C14.4795 27.4924 14.0375 27.1962 13.6656 26.8229L12.793 25.9503C12.5122 25.6712 12.1325 25.5144 11.7366 25.514H10.4865C9.42547 25.514 8.40792 25.0926 7.65769 24.3423C6.90745 23.5921 6.48597 22.5745 6.48597 21.5135V20.2634C6.48563 19.8687 6.32977 19.4901 6.05217 19.2095L5.17956 18.3369C4.80594 17.9653 4.5094 17.5236 4.30698 17.0372C4.10456 16.5507 4.00023 16.029 4 15.5021C3.99977 14.9751 4.10363 14.4534 4.30563 13.9667C4.50762 13.48 4.80377 13.0381 5.17706 12.6662L6.04966 11.7936C6.32879 11.5128 6.48562 11.1331 6.48597 10.7372V9.48705L6.49222 9.25952C6.55033 8.23953 6.99647 7.28042 7.73916 6.57887C8.48186 5.87732 9.46481 5.4865 10.4865 5.48656H11.7366C12.1313 5.48622 12.5099 5.33036 12.7905 5.05275L13.6631 4.18015C14.0348 3.80621 14.4768 3.50944 14.9636 3.30691C15.4504 3.10438 15.9724 3.00008 16.4997 3ZM19.6126 16.7379C19.1152 16.7379 18.6383 16.9355 18.2866 17.2872C17.9349 17.6389 17.7374 18.1158 17.7374 18.6132C17.7374 19.1105 17.9349 19.5875 18.2866 19.9392C18.6383 20.2908 19.1152 20.4884 19.6126 20.4884C20.1099 20.4884 20.5869 20.2908 20.9386 19.9392C21.2903 19.5875 21.4878 19.1105 21.4878 18.6132C21.4878 18.1158 21.2903 17.6389 20.9386 17.2872C20.5869 16.9355 20.1099 16.7379 19.6126 16.7379ZM21.1215 10.8535C20.8871 10.6191 20.5692 10.4874 20.2377 10.4874C19.9062 10.4874 19.5882 10.6191 19.3538 10.8535L11.8529 18.3544C11.6252 18.5902 11.4991 18.906 11.502 19.2338C11.5048 19.5615 11.6363 19.8751 11.8681 20.1069C12.0999 20.3387 12.4135 20.4702 12.7412 20.473C13.069 20.4758 13.3848 20.3498 13.6206 20.1221L21.1215 12.6212C21.3559 12.3867 21.4876 12.0688 21.4876 11.7373C21.4876 11.4058 21.3559 11.0879 21.1215 10.8535ZM13.3618 10.4872C12.8645 10.4872 12.3875 10.6847 12.0358 11.0364C11.6842 11.3881 11.4866 11.8651 11.4866 12.3624C11.4866 12.8597 11.6842 13.3367 12.0358 13.6884C12.3875 14.0401 12.8645 14.2376 13.3618 14.2376C13.8592 14.2376 14.3361 14.0401 14.6878 13.6884C15.0395 13.3367 15.237 12.8597 15.237 12.3624C15.237 11.8651 15.0395 11.3881 14.6878 11.0364C14.3361 10.6847 13.8592 10.4872 13.3618 10.4872Z" fill="white"/>
</svg>
