<svg width="25" height="27" viewBox="0 0 25 27" fill="none" xmlns="http://www.w3.org/2000/svg">
<path fill-rule="evenodd" clip-rule="evenodd" d="M10.7137 0.0928121C13.2656 -0.481625 15.1168 1.71168 15.1168 3.88025V23.1198C15.1168 25.2883 13.2656 27.4816 10.7137 26.9072C4.58175 25.5274 0 20.0497 0 13.5C0 6.95032 4.58175 1.47256 10.7137 0.0928121ZM18.2679 8.40565C18.5256 8.14802 18.8751 8.00329 19.2395 8.00329C19.6039 8.00329 19.9534 8.14802 20.2111 8.40565L24.3339 12.5284C24.5915 12.7861 24.7362 13.1356 24.7362 13.5C24.7362 13.8644 24.5915 14.2139 24.3339 14.4716L20.2111 18.5943C19.9519 18.8447 19.6048 18.9832 19.2445 18.9801C18.8841 18.9769 18.5394 18.8324 18.2847 18.5776C18.0299 18.3228 17.8853 17.9781 17.8822 17.6178C17.8791 17.2575 18.0176 16.9103 18.2679 16.6512L20.0448 14.8743H8.2455C7.88103 14.8743 7.53148 14.7295 7.27376 14.4717C7.01604 14.214 6.87125 13.8645 6.87125 13.5C6.87125 13.1355 7.01604 12.786 7.27376 12.5283C7.53148 12.2705 7.88103 12.1257 8.2455 12.1257H20.0448L18.2679 10.3488C18.0103 10.0911 17.8656 9.74165 17.8656 9.37725C17.8656 9.01285 18.0103 8.66336 18.2679 8.40565Z" fill="#33C060"/>
</svg>
