<svg width="24" height="24" viewBox="0 0 24 24" fill="none" xmlns="http://www.w3.org/2000/svg">
<path d="M14.2247 3C13.0148 3 11.8546 3.4806 10.9991 4.33607C10.1436 5.19155 9.66301 6.35182 9.66301 7.56164V10.1014H7.22192C7.09962 10.1014 7 10.2 7 10.3233V13.6767C7 13.799 7.09863 13.8986 7.22192 13.8986H9.66301V20.7781C9.66301 20.9004 9.76164 21 9.88493 21H13.2384C13.3607 21 13.4603 20.9014 13.4603 20.7781V13.8986H15.9231C16.0247 13.8986 16.1134 13.8296 16.1381 13.731L16.9764 10.3775C16.9847 10.3448 16.9854 10.3106 16.9784 10.2776C16.9715 10.2446 16.9571 10.2136 16.9364 10.187C16.9156 10.1603 16.8891 10.1388 16.8588 10.1239C16.8285 10.1091 16.7952 10.1014 16.7614 10.1014H13.4603V7.56164C13.4603 7.46126 13.48 7.36187 13.5185 7.26913C13.5569 7.17639 13.6132 7.09212 13.6842 7.02114C13.7551 6.95016 13.8394 6.89386 13.9321 6.85545C14.0249 6.81703 14.1243 6.79726 14.2247 6.79726H16.789C16.9113 6.79726 17.011 6.69863 17.011 6.57534V3.22192C17.011 3.09962 16.9123 3 16.789 3H14.2247Z" fill="white"/>
</svg>
