<svg width="36" height="36" viewBox="0 0 36 36" fill="none" xmlns="http://www.w3.org/2000/svg">
<path fill-rule="evenodd" clip-rule="evenodd" d="M18.8888 34.887L18.8723 34.89L18.7658 34.9425L18.7358 34.9485L18.7148 34.9425L18.6083 34.89C18.5923 34.885 18.5803 34.8875 18.5723 34.8975L18.5663 34.9125L18.5408 35.5545L18.5483 35.5845L18.5633 35.604L18.7193 35.715L18.7418 35.721L18.7598 35.715L18.9158 35.604L18.9338 35.58L18.9398 35.5545L18.9143 34.914C18.9103 34.898 18.9018 34.889 18.8888 34.887ZM19.2863 34.7175L19.2668 34.7205L18.9893 34.86L18.9743 34.875L18.9698 34.8915L18.9968 35.5365L19.0043 35.5545L19.0163 35.565L19.3178 35.7045C19.3368 35.7095 19.3513 35.7055 19.3613 35.6925L19.3673 35.6715L19.3163 34.7505C19.3113 34.7325 19.3013 34.7215 19.2863 34.7175ZM18.2138 34.7205C18.2072 34.7165 18.1993 34.7152 18.1917 34.7169C18.1842 34.7186 18.1776 34.7231 18.1733 34.7295L18.1643 34.7505L18.1133 35.6715C18.1143 35.6895 18.1228 35.7015 18.1388 35.7075L18.1613 35.7045L18.4628 35.565L18.4778 35.553L18.4838 35.5365L18.5093 34.8915L18.5048 34.8735L18.4898 34.8585L18.2138 34.7205Z" fill="#33C060"/>
<path fill-rule="evenodd" clip-rule="evenodd" d="M9 12C9 9.61305 9.94821 7.32387 11.636 5.63604C13.3239 3.94821 15.6131 3 18 3C20.3869 3 22.6761 3.94821 24.364 5.63604C26.0518 7.32387 27 9.61305 27 12H28.5C29.2956 12 30.0587 12.3161 30.6213 12.8787C31.1839 13.4413 31.5 14.2044 31.5 15V30C31.5 30.7956 31.1839 31.5587 30.6213 32.1213C30.0587 32.6839 29.2956 33 28.5 33H7.5C6.70435 33 5.94129 32.6839 5.37868 32.1213C4.81607 31.5587 4.5 30.7956 4.5 30V15C4.5 14.2044 4.81607 13.4413 5.37868 12.8787C5.94129 12.3161 6.70435 12 7.5 12H9ZM18 6C19.5913 6 21.1174 6.63214 22.2426 7.75736C23.3679 8.88258 24 10.4087 24 12H12C12 10.4087 12.6321 8.88258 13.7574 7.75736C14.8826 6.63214 16.4087 6 18 6ZM21 21C21 21.5266 20.8614 22.0439 20.5981 22.5C20.3348 22.956 19.956 23.3347 19.5 23.598V25.5C19.5 25.8978 19.342 26.2794 19.0607 26.5607C18.7794 26.842 18.3978 27 18 27C17.6022 27 17.2206 26.842 16.9393 26.5607C16.658 26.2794 16.5 25.8978 16.5 25.5V23.598C15.9281 23.2678 15.4812 22.7581 15.2285 22.148C14.9758 21.5379 14.9314 20.8614 15.1024 20.2235C15.2733 19.5857 15.6499 19.022 16.1738 18.62C16.6977 18.218 17.3396 18 18 18C18.7956 18 19.5587 18.3161 20.1213 18.8787C20.6839 19.4413 21 20.2044 21 21Z" fill="#33C060"/>
</svg>
