<svg width="32" height="32" viewBox="0 0 32 32" fill="none" xmlns="http://www.w3.org/2000/svg">
<path d="M12.2105 6.94737C12.2105 5.90046 12.6264 4.89643 13.3667 4.15616C14.107 3.41588 15.111 3 16.1579 3C17.2048 3 18.2088 3.41588 18.9491 4.15616C19.6894 4.89643 20.1053 5.90046 20.1053 6.94737C20.1053 7.99428 19.6894 8.9983 18.9491 9.73858C18.2088 10.4789 17.2048 10.8947 16.1579 10.8947C15.111 10.8947 14.107 10.4789 13.3667 9.73858C12.6264 8.9983 12.2105 7.99428 12.2105 6.94737ZM24.7105 4.31579C23.8381 4.31579 23.0014 4.66236 22.3845 5.27925C21.7676 5.89615 21.4211 6.73284 21.4211 7.60526C21.4211 8.47769 21.7676 9.31438 22.3845 9.93127C23.0014 10.5482 23.8381 10.8947 24.7105 10.8947C25.5829 10.8947 26.4196 10.5482 27.0365 9.93127C27.6534 9.31438 28 8.47769 28 7.60526C28 6.73284 27.6534 5.89615 27.0365 5.27925C26.4196 4.66236 25.5829 4.31579 24.7105 4.31579ZM7.60526 4.31579C6.73284 4.31579 5.89615 4.66236 5.27925 5.27925C4.66236 5.89615 4.31579 6.73284 4.31579 7.60526C4.31579 8.47769 4.66236 9.31438 5.27925 9.93127C5.89615 10.5482 6.73284 10.8947 7.60526 10.8947C8.47769 10.8947 9.31438 10.5482 9.93127 9.93127C10.5482 9.31438 10.8947 8.47769 10.8947 7.60526C10.8947 6.73284 10.5482 5.89615 9.93127 5.27925C9.31438 4.66236 8.47769 4.31579 7.60526 4.31579ZM13.0329 12.2105C12.2913 12.2105 11.5801 12.5051 11.0558 13.0295C10.5314 13.5538 10.2368 14.265 10.2368 15.0066V22.0789C10.2368 23.6493 10.8607 25.1553 11.9711 26.2658C13.0815 27.3762 14.5875 28 16.1579 28C17.7283 28 19.2343 27.3762 20.3447 26.2658C21.4551 25.1553 22.0789 23.6493 22.0789 22.0789V15.0066C22.0789 14.265 21.7844 13.5538 21.26 13.0295C20.7356 12.5051 20.0245 12.2105 19.2829 12.2105H13.0329ZM8.92105 15.0066C8.92105 13.9539 9.31711 12.9928 9.96842 12.2651C9.78602 12.2288 9.60047 12.2105 9.41447 12.2105H5.79605C5.05449 12.2105 4.34331 12.5051 3.81895 13.0295C3.29458 13.5538 3 14.265 3 15.0066V21.4211C2.99978 22.2164 3.20552 22.9982 3.59719 23.6903C3.98886 24.3825 4.5531 24.9614 5.23497 25.3708C5.91684 25.7801 6.6931 26.0059 7.48814 26.0261C8.28318 26.0463 9.06991 25.8603 9.77171 25.4862C9.21143 24.438 8.9192 23.2675 8.92105 22.0789V15.0066ZM23.3947 22.0789C23.3947 23.3105 23.0868 24.4704 22.5441 25.4862C23.2459 25.8603 24.0326 26.0463 24.8277 26.0261C25.6227 26.0059 26.3989 25.7801 27.0808 25.3708C27.7627 24.9614 28.3269 24.3825 28.7186 23.6903C29.1103 22.9982 29.316 22.2164 29.3158 21.4211V15.0066C29.3158 14.265 29.0212 13.5538 28.4968 13.0295C27.9725 12.5051 27.2613 12.2105 26.5197 12.2105H22.9013C22.7114 12.211 22.5268 12.2292 22.3474 12.2651C23.0229 13.0184 23.3959 13.9948 23.3947 15.0066V22.0789Z" fill="white"/>
</svg>
