<svg width="24" height="24" viewBox="0 0 24 24" fill="none" xmlns="http://www.w3.org/2000/svg">
<path fill-rule="evenodd" clip-rule="evenodd" d="M12.25 3C13.2119 3 14.1985 3.02475 15.1547 3.06525L16.2843 3.11925L17.3654 3.18338L18.3779 3.252L19.3026 3.324C20.3063 3.40038 21.2509 3.82849 21.9699 4.53293C22.689 5.23737 23.1364 6.17294 23.2334 7.17487L23.2784 7.653L23.3628 8.67675C23.4415 9.73762 23.5 10.8941 23.5 12C23.5 13.1059 23.4415 14.2624 23.3628 15.3233L23.2784 16.347L23.2334 16.8251C23.1364 17.8272 22.6888 18.763 21.9695 19.4674C21.2502 20.1719 20.3054 20.5999 19.3015 20.676L18.379 20.7469L17.3665 20.8166L16.2843 20.8807L15.1547 20.9347C14.1871 20.9767 13.2186 20.9984 12.25 21C11.2814 20.9984 10.3129 20.9767 9.34525 20.9347L8.21575 20.8807L7.13463 20.8166L6.12212 20.7469L5.19737 20.676C4.19367 20.5996 3.2491 20.1715 2.53005 19.4671C1.811 18.7626 1.36359 17.8271 1.26662 16.8251L1.22163 16.347L1.13725 15.3233C1.05156 14.2175 1.00578 13.109 1 12C1 10.8941 1.0585 9.73762 1.13725 8.67675L1.22163 7.653L1.26662 7.17487C1.36355 6.17312 1.8108 5.23768 2.52962 4.53327C3.24844 3.82885 4.19274 3.40063 5.19625 3.324L6.11988 3.252L7.13238 3.18338L8.21463 3.11925L9.34412 3.06525C10.3122 3.02332 11.281 3.00156 12.25 3ZM10 9.27187V14.7281C10 15.2479 10.5625 15.5719 11.0125 15.3131L15.7375 12.585C15.8403 12.5258 15.9257 12.4406 15.9851 12.3379C16.0445 12.2352 16.0758 12.1186 16.0758 12C16.0758 11.8814 16.0445 11.7648 15.9851 11.6621C15.9257 11.5594 15.8403 11.4742 15.7375 11.415L11.0125 8.688C10.9099 8.62874 10.7934 8.59755 10.6749 8.59757C10.5564 8.59759 10.4399 8.62881 10.3373 8.68811C10.2347 8.7474 10.1495 8.83268 10.0903 8.93535C10.0311 9.03802 9.99992 9.15448 10 9.273V9.27187Z" fill="white"/>
</svg>
