<svg width="34" height="34" viewBox="0 0 34 34" fill="none" xmlns="http://www.w3.org/2000/svg">
<circle cx="17" cy="17" r="16.5" stroke="#D9D9D9"/>
<path d="M16.9977 13.9987C15.3451 13.9987 13.9965 15.3474 13.9965 17C13.9965 18.6526 15.3451 20.0013 16.9977 20.0013C18.6504 20.0013 19.999 18.6526 19.999 17C19.999 15.3474 18.6504 13.9987 16.9977 13.9987ZM25.9993 17C25.9993 15.7572 26.0106 14.5256 25.9408 13.285C25.871 11.844 25.5423 10.5652 24.4886 9.51144C23.4326 8.45548 22.156 8.12901 20.715 8.05921C19.4722 7.98941 18.2406 8.00067 17 8.00067C15.7572 8.00067 14.5256 7.98941 13.285 8.05921C11.844 8.12901 10.5652 8.45773 9.51144 9.51144C8.45548 10.5674 8.12901 11.844 8.05921 13.285C7.98941 14.5278 8.00067 15.7594 8.00067 17C8.00067 18.2406 7.98941 19.4744 8.05921 20.715C8.12901 22.156 8.45773 23.4348 9.51144 24.4886C10.5674 25.5445 11.844 25.871 13.285 25.9408C14.5278 26.0106 15.7594 25.9993 17 25.9993C18.2428 25.9993 19.4744 26.0106 20.715 25.9408C22.156 25.871 23.4348 25.5423 24.4886 24.4886C25.5445 23.4326 25.871 22.156 25.9408 20.715C26.0128 19.4744 25.9993 18.2428 25.9993 17ZM16.9977 21.6179C14.4423 21.6179 12.3799 19.5555 12.3799 17C12.3799 14.4445 14.4423 12.3821 16.9977 12.3821C19.5532 12.3821 21.6156 14.4445 21.6156 17C21.6156 19.5555 19.5532 21.6179 16.9977 21.6179ZM21.8047 13.2715C21.2081 13.2715 20.7263 12.7897 20.7263 12.193C20.7263 11.5963 21.2081 11.1145 21.8047 11.1145C22.4014 11.1145 22.8832 11.5963 22.8832 12.193C22.8834 12.3347 22.8556 12.475 22.8015 12.6059C22.7474 12.7369 22.6679 12.8558 22.5677 12.956C22.4676 13.0562 22.3486 13.1356 22.2177 13.1897C22.0867 13.2439 21.9464 13.2717 21.8047 13.2715Z" fill="#696B6B"/>
</svg>
