<svg width="34" height="34" viewBox="0 0 34 34" fill="none" xmlns="http://www.w3.org/2000/svg">
<circle cx="17" cy="17" r="16.5" stroke="#D9D9D9"/>
<path d="M16.1618 21.4691C16.2486 21.5556 16.3174 21.6584 16.3644 21.7715C16.4114 21.8847 16.4356 22.006 16.4356 22.1285C16.4356 22.251 16.4114 22.3723 16.3644 22.4855C16.3174 22.5986 16.2486 22.7014 16.1618 22.7879L15.7646 23.185C15.343 23.6082 14.8417 23.9436 14.2897 24.1718C13.7376 24.4 13.1458 24.5165 12.5485 24.5146C11.6489 24.5149 10.7695 24.2484 10.0214 23.7487C9.27333 23.2491 8.69027 22.5388 8.34598 21.7077C8.00169 20.8766 7.91163 19.9621 8.08721 19.0798C8.26279 18.1975 8.69611 17.3872 9.33235 16.7512L12.028 14.0556C12.6013 13.4823 13.3175 13.0727 14.1023 12.8692C14.8872 12.6656 15.7121 12.6756 16.4918 12.8979C17.2715 13.1203 17.9776 13.5471 18.537 14.134C19.0964 14.7209 19.4888 15.4467 19.6735 16.2361C19.7041 16.3562 19.7104 16.4811 19.6921 16.6036C19.6738 16.7261 19.6312 16.8438 19.5668 16.9496C19.5025 17.0554 19.4176 17.1474 19.3173 17.22C19.217 17.2927 19.1031 17.3445 18.9825 17.3726C18.8618 17.4007 18.7368 17.4044 18.6147 17.3836C18.4926 17.3627 18.3759 17.3177 18.2714 17.2512C18.1669 17.1846 18.0768 17.0979 18.0062 16.9961C17.9357 16.8942 17.8862 16.7793 17.8606 16.6581C17.751 16.1921 17.5189 15.7638 17.1884 15.4175C16.8578 15.0712 16.4407 14.8195 15.9803 14.6884C15.5199 14.5572 15.0328 14.5515 14.5694 14.6717C14.1059 14.7918 13.683 15.0336 13.3444 15.372L10.6487 18.0676C10.273 18.4431 10.017 18.9215 9.9132 19.4424C9.80937 19.9634 9.86236 20.5034 10.0655 20.9942C10.2686 21.485 10.6127 21.9046 11.0542 22.1998C11.4958 22.4951 12.015 22.6527 12.5462 22.6529C12.8991 22.6539 13.2487 22.5849 13.5748 22.4499C13.9009 22.3149 14.197 22.1165 14.4459 21.8663L14.8423 21.4691C14.9288 21.3822 15.0316 21.3133 15.1448 21.2662C15.258 21.2192 15.3794 21.195 15.502 21.195C15.6246 21.195 15.746 21.2192 15.8593 21.2662C15.9725 21.3133 16.0753 21.3822 16.1618 21.4691ZM24.6676 10.3321C23.8144 9.47925 22.6574 9.00012 21.451 9.00012C20.2447 9.00012 19.0877 9.47925 18.2345 10.3321L17.8381 10.7285C17.6632 10.9034 17.565 11.1406 17.565 11.3879C17.565 11.6352 17.6632 11.8724 17.8381 12.0473C18.013 12.2221 18.2502 12.3204 18.4975 12.3204C18.7448 12.3204 18.982 12.2221 19.1568 12.0473L19.554 11.6501C20.0581 11.146 20.7417 10.8629 21.4545 10.8629C22.1674 10.8629 22.851 11.146 23.355 11.6501C23.8591 12.1541 24.1423 12.8378 24.1423 13.5506C24.1423 14.2634 23.8591 14.9471 23.355 15.4511L20.6548 18.1429C20.4059 18.3931 20.1098 18.5915 19.7837 18.7265C19.4576 18.8615 19.108 18.9305 18.755 18.9294C18.1496 18.929 17.562 18.7241 17.0876 18.3478C16.6133 17.9716 16.2799 17.4462 16.1416 16.8567C16.0857 16.6162 15.9365 16.4078 15.7268 16.2773C15.5172 16.1468 15.2643 16.1049 15.0238 16.1609C14.7833 16.2169 14.5749 16.3661 14.4444 16.5757C14.3139 16.7853 14.272 17.0382 14.328 17.2787C14.5616 18.277 15.1255 19.167 15.9284 19.8046C16.7312 20.4422 17.7259 20.7898 18.7511 20.7912H18.755C19.3526 20.7928 19.9447 20.6759 20.4968 20.4473C21.049 20.2187 21.5504 19.8829 21.9719 19.4593L24.6676 16.7636C25.0899 16.3414 25.4249 15.84 25.6535 15.2883C25.8821 14.7365 25.9998 14.1451 25.9998 13.5479C25.9998 12.9506 25.8821 12.3593 25.6535 11.8075C25.4249 11.2557 25.0899 10.7544 24.6676 10.3321Z" fill="#696B6B"/>
</svg>
