<svg width="18" height="18" viewBox="0 0 18 18" fill="none" xmlns="http://www.w3.org/2000/svg">
<path d="M6.15296 3.97195C5.99445 3.81344 5.9054 3.59846 5.9054 3.3743C5.9054 3.15013 5.99445 2.93515 6.15296 2.77664C6.31147 2.61813 6.52645 2.52908 6.75061 2.52908C6.97478 2.52908 7.18976 2.61813 7.34827 2.77664L12.9733 8.40164C13.0519 8.48003 13.1143 8.57317 13.1569 8.67573C13.1995 8.77829 13.2214 8.88825 13.2214 8.9993C13.2214 9.11035 13.1995 9.2203 13.1569 9.32286C13.1143 9.42542 13.0519 9.51856 12.9733 9.59695L7.34827 15.222C7.18976 15.3805 6.97478 15.4695 6.75061 15.4695C6.52645 15.4695 6.31147 15.3805 6.15296 15.222C5.99445 15.0634 5.9054 14.8485 5.9054 14.6243C5.9054 14.4001 5.99445 14.1851 6.15296 14.0266L11.1796 9L6.15296 3.97195Z" fill="#33C060"/>
</svg>
