<svg width="30" height="32" viewBox="0 0 30 32" fill="none" xmlns="http://www.w3.org/2000/svg">
<path d="M14.27 15.4629L4.12244 26.0108C4.23639 26.4115 4.44117 26.781 4.72113 27.0911C5.00108 27.4013 5.3488 27.6438 5.7377 27.8001C6.12659 27.9565 6.54637 28.0225 6.96494 27.9933C7.38352 27.964 7.78981 27.8401 8.15275 27.6312L19.5707 21.1795L14.27 15.4629Z" fill="#EA4335"/>
<path d="M24.531 13.6703L19.5935 10.8644L14.0358 15.7031L19.6161 21.1647L24.516 18.3889C24.9501 18.1634 25.3137 17.8243 25.5674 17.4084C25.821 16.9925 25.9551 16.5156 25.9551 16.0295C25.9551 15.5434 25.821 15.0665 25.5674 14.6506C25.3137 14.2348 24.9501 13.8957 24.516 13.6702L24.531 13.6703Z" fill="#FBBC04"/>
<path d="M4.12254 5.99597C4.06124 6.22095 4.03071 6.45309 4.03176 6.68614V25.3212C4.03237 25.5542 4.06287 25.7861 4.12254 26.0115L14.618 15.7336L4.12254 5.99597Z" fill="#4285F4"/>
<path d="M14.3456 16.0033L19.5934 10.8644L8.1906 4.3826C7.76158 4.13333 7.27363 4.00132 6.77646 4.00001C5.54266 3.99763 4.45797 4.81006 4.12244 5.9881L14.3456 16.0033Z" fill="#34A853"/>
</svg>
