<svg width="27" height="27" viewBox="0 0 27 27" fill="none" xmlns="http://www.w3.org/2000/svg">
<path d="M13.542 21.345C13.874 21.345 14.154 21.231 14.382 21.003C14.61 20.775 14.724 20.495 14.724 20.163C14.724 19.831 14.609 19.551 14.379 19.323C14.151 19.095 13.871 18.981 13.539 18.981C13.207 18.981 12.927 19.0955 12.699 19.3245C12.471 19.5535 12.3575 19.8335 12.3585 20.1645C12.3585 20.4965 12.4725 20.7765 12.7005 21.0045C12.9305 21.2325 13.211 21.3465 13.542 21.3465M13.5045 27C11.6385 27 9.8835 26.646 8.2395 25.938C6.5965 25.229 5.167 24.267 3.951 23.052C2.735 21.837 1.7725 20.409 1.0635 18.768C0.3545 17.127 0 15.3725 0 13.5045C0 11.6365 0.3545 9.8815 1.0635 8.2395C1.7715 6.5965 2.732 5.167 3.945 3.951C5.158 2.735 6.5865 1.7725 8.2305 1.0635C9.8745 0.3545 11.6295 0 13.4955 0C15.3615 0 17.1165 0.3545 18.7605 1.0635C20.4035 1.7715 21.833 2.7325 23.049 3.9465C24.265 5.1605 25.2275 6.589 25.9365 8.232C26.6455 9.875 27 11.6295 27 13.4955C27 15.3615 26.646 17.1165 25.938 18.7605C25.23 20.4045 24.268 21.834 23.052 23.049C21.836 24.264 20.408 25.2265 18.768 25.9365C17.128 26.6465 15.3735 27.001 13.5045 27ZM13.593 7.107C14.353 7.107 15.007 7.343 15.555 7.815C16.105 8.286 16.38 8.875 16.38 9.582C16.38 10.132 16.225 10.6295 15.915 11.0745C15.607 11.5185 15.25 11.928 14.844 12.303C14.33 12.769 13.8775 13.2815 13.4865 13.8405C13.0955 14.4005 12.871 15.0165 12.813 15.6885C12.794 15.8855 12.8555 16.0495 12.9975 16.1805C13.1375 16.3125 13.3025 16.3785 13.4925 16.3785C13.6935 16.3785 13.863 16.311 14.001 16.176C14.138 16.042 14.225 15.8835 14.262 15.7005C14.362 15.1945 14.563 14.745 14.865 14.352C15.166 13.959 15.497 13.5865 15.858 13.2345C16.377 12.7195 16.8375 12.1575 17.2395 11.5485C17.6425 10.9405 17.844 10.262 17.844 9.513C17.844 8.411 17.426 7.502 16.59 6.786C15.755 6.07 14.775 5.712 13.65 5.712C12.816 5.712 12.0395 5.907 11.3205 6.297C10.6025 6.687 10.028 7.227 9.597 7.917C9.499 8.083 9.4675 8.2545 9.5025 8.4315C9.5375 8.6085 9.6325 8.743 9.7875 8.835C9.9855 8.939 10.1855 8.963 10.3875 8.907C10.5895 8.851 10.7675 8.735 10.9215 8.559C11.2545 8.145 11.6465 7.8 12.0975 7.524C12.5475 7.246 13.046 7.107 13.593 7.107Z" fill="#33C060"/>
</svg>
