<svg width="18" height="18" viewBox="0 0 18 18" fill="none" xmlns="http://www.w3.org/2000/svg">
<path d="M16.4798 14.7655C15.5158 13.0736 14.0104 11.7553 12.2062 11.0228C13.1034 10.3499 13.7662 9.41168 14.1006 8.34114C14.435 7.27059 14.4241 6.12197 14.0695 5.05796C13.7148 3.99396 13.0343 3.06851 12.1245 2.41273C11.2146 1.75694 10.1215 1.40405 8.99992 1.40405C7.87836 1.40405 6.78524 1.75694 5.87538 2.41273C4.96552 3.06851 4.28507 3.99396 3.9304 5.05796C3.57573 6.12197 3.56483 7.27059 3.89924 8.34114C4.23366 9.41168 4.89643 10.3499 5.79367 11.0228C3.9894 11.7553 2.4841 13.0736 1.52008 14.7655C1.46035 14.8616 1.42053 14.9687 1.40301 15.0804C1.38549 15.1922 1.39061 15.3063 1.41807 15.416C1.44554 15.5257 1.49478 15.6288 1.56288 15.7191C1.63098 15.8094 1.71654 15.8851 1.81447 15.9417C1.91241 15.9983 2.02073 16.0346 2.13298 16.0485C2.24523 16.0624 2.35913 16.0536 2.46791 16.0225C2.57668 15.9915 2.67811 15.939 2.76616 15.868C2.85422 15.797 2.9271 15.709 2.98047 15.6093C4.25453 13.4071 6.50453 12.0937 8.99992 12.0937C11.4953 12.0937 13.7453 13.4078 15.0194 15.6093C15.1351 15.7953 15.3185 15.929 15.531 15.9822C15.7435 16.0354 15.9683 16.0038 16.158 15.8943C16.3476 15.7847 16.4872 15.6057 16.5473 15.395C16.6073 15.1844 16.5831 14.9586 16.4798 14.7655ZM5.34367 6.74991C5.34367 6.02677 5.55811 5.31988 5.95986 4.71861C6.36162 4.11734 6.93265 3.64871 7.60074 3.37198C8.26883 3.09524 9.00398 3.02284 9.71322 3.16392C10.4225 3.30499 11.0739 3.65322 11.5853 4.16455C12.0966 4.67589 12.4448 5.32737 12.5859 6.03661C12.727 6.74586 12.6546 7.48101 12.3779 8.1491C12.1011 8.81719 11.6325 9.38822 11.0312 9.78997C10.43 10.1917 9.72306 10.4062 8.99992 10.4062C8.03057 10.405 7.10124 10.0195 6.4158 9.33404C5.73036 8.6486 5.34479 7.71927 5.34367 6.74991Z" fill="white"/>
</svg>
