<svg width="32" height="32" viewBox="0 0 32 32" fill="none" xmlns="http://www.w3.org/2000/svg">
<path d="M22.8473 27.0371C21.5408 28.3036 20.1143 28.1036 18.7412 27.5037C17.288 26.8904 15.9548 26.8638 14.4217 27.5037C12.5019 28.3303 11.4887 28.0903 10.3422 27.0371C3.83638 20.3313 4.79626 10.1192 12.182 9.74594C13.9818 9.83926 15.2349 10.7325 16.2881 10.8125C17.8613 10.4925 19.3677 9.57263 21.0475 9.69261C23.0606 9.85259 24.5804 10.6525 25.5803 12.0923C21.4208 14.5853 22.4074 20.0646 26.2202 21.5978C25.4603 23.5975 24.4738 25.5839 22.834 27.0504L22.8473 27.0371ZM16.1548 9.66595C15.9548 6.69299 18.3679 4.23997 21.1409 4C21.5275 7.43957 18.0213 9.99924 16.1548 9.66595Z" fill="white"/>
</svg>
