<svg width="18" height="18" viewBox="0 0 18 18" fill="none" xmlns="http://www.w3.org/2000/svg">
<path d="M3.97193 11.847C3.81342 12.0055 3.59843 12.0945 3.37427 12.0945C3.1501 12.0945 2.93512 12.0055 2.77661 11.847C2.6181 11.6884 2.52905 11.4735 2.52905 11.2493C2.52905 11.0251 2.6181 10.8102 2.77661 10.6516L8.40161 5.02664C8.48 4.94798 8.57314 4.88557 8.6757 4.84298C8.77826 4.8004 8.88822 4.77848 8.99927 4.77848C9.11032 4.77848 9.22028 4.8004 9.32283 4.84298C9.42539 4.88557 9.51854 4.94798 9.59693 5.02664L15.2219 10.6516C15.3804 10.8102 15.4695 11.0251 15.4695 11.2493C15.4695 11.4735 15.3804 11.6884 15.2219 11.847C15.0634 12.0055 14.8484 12.0945 14.6243 12.0945C14.4001 12.0945 14.1851 12.0055 14.0266 11.847L8.99997 6.82031L3.97193 11.847Z" fill="black"/>
</svg>
