<svg width="23" height="27" viewBox="0 0 23 27" fill="none" xmlns="http://www.w3.org/2000/svg">
<path d="M1.47301 4.06315C0.581777 4.45925 0 5.35049 0 6.32837V12.1461C0 19.016 4.75324 25.4403 11.1404 27C17.5276 25.4403 22.2808 19.016 22.2808 12.1461V6.32837C22.2808 5.35049 21.699 4.45925 20.8078 4.06315L12.143 0.213524C11.4994 -0.0711748 10.7691 -0.0711748 10.1378 0.213524L1.47301 4.06315ZM11.1404 7.19484C11.8212 7.19484 12.3782 7.75186 12.3782 8.43266C12.3782 9.11347 11.8212 9.67049 11.1404 9.67049C10.4596 9.67049 9.90258 9.11347 9.90258 8.43266C9.90258 7.75186 10.4596 7.19484 11.1404 7.19484ZM11.1404 12.1461C11.8212 12.1461 12.3782 12.7032 12.3782 13.384V18.3352C12.3782 19.016 11.8212 19.5731 11.1404 19.5731C10.4596 19.5731 9.90258 19.016 9.90258 18.3352V13.384C9.90258 12.7032 10.4596 12.1461 11.1404 12.1461Z" fill="#33C060"/>
</svg>
