<svg width="34" height="34" viewBox="0 0 34 34" fill="none" xmlns="http://www.w3.org/2000/svg">
<path d="M17 5C23.6276 5 29 10.3724 29 17C29 23.6276 23.6276 29 17 29C14.8793 29.0036 12.7959 28.4424 10.964 27.374L5.00482 29L6.62722 23.0384C5.55797 21.2059 4.9963 19.1216 5.00002 17C5.00002 10.3724 10.3724 5 17 5ZM12.9104 11.36L12.6704 11.3696C12.5152 11.3803 12.3636 11.421 12.224 11.4896C12.0939 11.5634 11.9751 11.6556 11.8712 11.7632C11.7272 11.8988 11.6456 12.0164 11.558 12.1304C11.1142 12.7075 10.8752 13.416 10.8788 14.144C10.8812 14.732 11.0348 15.3044 11.2748 15.8396C11.7656 16.922 12.5732 18.068 13.6388 19.13C13.8956 19.3856 14.1476 19.6424 14.4188 19.8812C15.7429 21.0469 17.3207 21.8876 19.0268 22.3364L19.7084 22.4408C19.9304 22.4528 20.1524 22.436 20.3756 22.4252C20.725 22.4068 21.0662 22.3122 21.3752 22.148C21.5322 22.0668 21.6856 21.9787 21.8348 21.884C21.8348 21.884 21.8856 21.8496 21.9848 21.776C22.1468 21.656 22.2464 21.5708 22.3808 21.4304C22.4816 21.3264 22.5656 21.2056 22.6328 21.068C22.7264 20.8724 22.82 20.4992 22.8584 20.1884C22.8872 19.9508 22.8788 19.8212 22.8752 19.7408C22.8704 19.6124 22.7636 19.4792 22.6472 19.4228L21.9488 19.1096C21.9488 19.1096 20.9048 18.6548 20.2664 18.3644C20.1996 18.3353 20.128 18.3186 20.0552 18.3152C19.9731 18.3066 19.8901 18.3158 19.8118 18.3421C19.7336 18.3684 19.6619 18.4112 19.6016 18.4676C19.5956 18.4652 19.5152 18.5336 18.6476 19.5848C18.5978 19.6517 18.5292 19.7023 18.4506 19.7301C18.3719 19.7578 18.2868 19.7616 18.206 19.7408C18.1278 19.7199 18.0512 19.6935 17.9768 19.6616C17.828 19.5992 17.7764 19.5752 17.6744 19.532C16.9855 19.2319 16.3477 18.8258 15.7844 18.3284C15.6332 18.1964 15.4928 18.0524 15.3488 17.9132C14.8767 17.461 14.4653 16.9496 14.1248 16.3916L14.054 16.2776C14.0039 16.2005 13.9629 16.118 13.9316 16.0316C13.886 15.8552 14.0048 15.7136 14.0048 15.7136C14.0048 15.7136 14.2964 15.3944 14.432 15.2216C14.564 15.0536 14.6756 14.8904 14.7476 14.774C14.8892 14.546 14.9336 14.312 14.8592 14.1308C14.5232 13.31 14.176 12.4936 13.8176 11.6816C13.7468 11.5208 13.5368 11.4056 13.346 11.3828C13.2812 11.3748 13.2164 11.3684 13.1516 11.3636C12.9905 11.3544 12.8289 11.356 12.668 11.3684L12.9104 11.36Z" fill="#33C060"/>
</svg>
