<svg width="32" height="32" viewBox="0 0 32 32" fill="none" xmlns="http://www.w3.org/2000/svg">
<path d="M21.4539 28L21.0592 26.0263C20.7961 25.9167 20.5496 25.8018 20.3197 25.6816C20.0899 25.5614 19.8539 25.4132 19.6118 25.2368L17.7039 25.8289L16.3882 23.5921L17.9013 22.2763C17.8575 22.0132 17.8355 21.7281 17.8355 21.4211C17.8355 21.114 17.8575 20.8289 17.9013 20.5658L16.3882 19.25L17.7039 17.0132L19.6118 17.6053C19.8531 17.4298 20.089 17.282 20.3197 17.1618C20.5504 17.0417 20.7969 16.9263 21.0592 16.8158L21.4539 14.8421H24.0855L24.4803 16.8158C24.7434 16.9254 24.9904 17.0408 25.2211 17.1618C25.4518 17.2829 25.6873 17.4307 25.9276 17.6053L27.8355 17.0132L29.1513 19.25L27.6382 20.5658C27.682 20.8289 27.7039 21.114 27.7039 21.4211C27.7039 21.7281 27.682 22.0132 27.6382 22.2763L29.1513 23.5921L27.8355 25.8289L25.9276 25.2368C25.6864 25.4123 25.4509 25.5605 25.2211 25.6816C24.9912 25.8026 24.7443 25.9175 24.4803 26.0263L24.0855 28H21.4539ZM5.63158 26.6842C4.90789 26.6842 4.2886 26.4268 3.77368 25.9118C3.25877 25.3969 3.00088 24.7772 3 24.0526V5.63158C3 4.90789 3.25789 4.2886 3.77368 3.77368C4.28947 3.25877 4.90877 3.00088 5.63158 3H24.0526C24.7763 3 25.3961 3.25789 25.9118 3.77368C26.4276 4.28947 26.6851 4.90877 26.6842 5.63158V13.0658C26.2675 12.8684 25.8399 12.7092 25.4013 12.5882C24.9627 12.4671 24.5132 12.3746 24.0526 12.3105V5.63158H5.63158V17.4737H11.1579C11.3553 18.0658 11.6842 18.5811 12.1447 19.0197C12.6053 19.4583 13.1206 19.7654 13.6908 19.9408C13.4934 21.125 13.5211 22.2982 13.7737 23.4605C14.0263 24.6228 14.5031 25.6974 15.2039 26.6842H5.63158ZM22.7697 24.0526C23.4934 24.0526 24.1132 23.7952 24.6289 23.2803C25.1447 22.7654 25.4022 22.1456 25.4013 21.4211C25.4004 20.6965 25.143 20.0772 24.6289 19.5632C24.1149 19.0491 23.4952 18.7912 22.7697 18.7895C22.0443 18.7877 21.425 19.0456 20.9118 19.5632C20.3987 20.0807 20.1408 20.7 20.1382 21.4211C20.1355 22.1421 20.3934 22.7618 20.9118 23.2803C21.4303 23.7987 22.0496 24.0561 22.7697 24.0526Z" fill="white"/>
</svg>
