<svg width="26" height="28" viewBox="0 0 26 28" fill="none" xmlns="http://www.w3.org/2000/svg">
<path fill-rule="evenodd" clip-rule="evenodd" d="M13.0288 0.5C9.64106 0.5 6.55481 1.619 4.72856 2.53325C4.56356 2.61575 4.40956 2.69625 4.26656 2.77475C3.98306 2.92925 3.74156 3.07325 3.54956 3.2L5.62706 6.2585L6.60506 6.64775C10.4271 8.576 15.5526 8.576 19.3753 6.64775L20.4853 6.07175L22.4496 3.2C22.0422 2.93533 21.6192 2.69564 21.1828 2.48225C19.3656 1.57775 16.3528 0.5 13.0296 0.5M8.19806 3.962C7.46256 3.82359 6.73601 3.64126 6.02231 3.416C7.73306 2.65625 10.2823 1.85 13.0296 1.85C14.9323 1.85 16.7316 2.237 18.2196 2.7275C16.4758 2.97275 14.6151 3.389 12.8421 3.90125C11.4471 4.30475 9.81656 4.26125 8.19806 3.962ZM20.1681 7.76L19.9836 7.853C15.7791 9.974 10.2021 9.974 5.99756 7.853L5.82281 7.7645C-0.494441 14.6952 -5.31694 27.4978 13.0288 27.4978C31.3746 27.4978 26.4351 14.4575 20.1681 7.76ZM12.2496 14C11.8517 14 11.4702 14.158 11.1889 14.4393C10.9076 14.7206 10.7496 15.1022 10.7496 15.5C10.7496 15.8978 10.9076 16.2794 11.1889 16.5607C11.4702 16.842 11.8517 17 12.2496 17V14ZM13.7496 12.5V11.75H12.2496V12.5C11.4539 12.5 10.6908 12.8161 10.1282 13.3787C9.56563 13.9413 9.24956 14.7044 9.24956 15.5C9.24956 16.2956 9.56563 17.0587 10.1282 17.6213C10.6908 18.1839 11.4539 18.5 12.2496 18.5V21.5C11.5971 21.5 11.0413 21.0837 10.8343 20.5002C10.8036 20.4048 10.7541 20.3165 10.6886 20.2405C10.6232 20.1645 10.5431 20.1024 10.4533 20.0579C10.3634 20.0134 10.2655 19.9873 10.1654 19.9813C10.0653 19.9753 9.96505 19.9894 9.8705 20.0228C9.77594 20.0562 9.68905 20.1082 9.61495 20.1758C9.54086 20.2434 9.48107 20.3251 9.43912 20.4162C9.39717 20.5073 9.37391 20.6059 9.37073 20.7061C9.36754 20.8063 9.38448 20.9062 9.42056 20.9998C9.62735 21.5848 10.0105 22.0913 10.5171 22.4496C11.0238 22.8078 11.629 23.0001 12.2496 23V23.75H13.7496V23C14.5452 23 15.3083 22.6839 15.8709 22.1213C16.4335 21.5587 16.7496 20.7956 16.7496 20C16.7496 19.2044 16.4335 18.4413 15.8709 17.8787C15.3083 17.3161 14.5452 17 13.7496 17V14C14.4021 14 14.9578 14.4163 15.1648 14.9998C15.1955 15.0952 15.2451 15.1835 15.3105 15.2595C15.376 15.3355 15.456 15.3976 15.5458 15.4421C15.6357 15.4866 15.7336 15.5127 15.8337 15.5187C15.9338 15.5247 16.0341 15.5106 16.1286 15.4772C16.2232 15.4438 16.3101 15.3918 16.3842 15.3242C16.4583 15.2566 16.5181 15.1749 16.56 15.0838C16.6019 14.9927 16.6252 14.8941 16.6284 14.7939C16.6316 14.6937 16.6146 14.5938 16.5786 14.5002C16.3718 13.9152 15.9887 13.4087 15.482 13.0504C14.9753 12.6922 14.3701 12.4999 13.7496 12.5ZM13.7496 18.5V21.5C14.1474 21.5 14.5289 21.342 14.8102 21.0607C15.0915 20.7794 15.2496 20.3978 15.2496 20C15.2496 19.6022 15.0915 19.2206 14.8102 18.9393C14.5289 18.658 14.1474 18.5 13.7496 18.5Z" fill="#33C060"/>
</svg>
