<svg width="100" height="100" viewBox="0 0 100 100" fill="none" xmlns="http://www.w3.org/2000/svg">
<path fill-rule="evenodd" clip-rule="evenodd" d="M50.0801 12.5C40.6697 12.5 32.0968 15.6083 27.0239 18.1479C26.5656 18.3771 26.1378 18.6007 25.7406 18.8187C24.9531 19.2479 24.2822 19.6479 23.7489 20L29.5197 28.4958L32.2364 29.5771C42.8531 34.9333 57.0905 34.9333 67.7093 29.5771L70.7926 27.9771L76.2489 20C75.1174 19.2648 73.9423 18.599 72.7301 18.0062C67.6822 15.4937 59.3135 12.5 50.0822 12.5M36.6614 22.1167C34.6183 21.7322 32.6001 21.2257 30.6176 20.6C35.3697 18.4896 42.451 16.25 50.0822 16.25C55.3676 16.25 60.3655 17.325 64.4989 18.6875C59.6551 19.3688 54.4864 20.525 49.5614 21.9479C45.6864 23.0687 41.1572 22.9479 36.6614 22.1167ZM69.9114 32.6667L69.3989 32.925C57.7197 38.8167 42.2281 38.8167 30.5489 32.925L30.0635 32.6792C12.5156 51.9312 -0.880282 87.4938 50.0801 87.4938C101.041 87.4938 87.3197 51.2708 69.9114 32.6667ZM47.9156 50C46.8105 50 45.7507 50.439 44.9693 51.2204C44.1879 52.0018 43.7489 53.0616 43.7489 54.1667C43.7489 55.2717 44.1879 56.3315 44.9693 57.1129C45.7507 57.8943 46.8105 58.3333 47.9156 58.3333V50ZM52.0822 45.8333V43.75H47.9156V45.8333C45.7054 45.8333 43.5858 46.7113 42.023 48.2741C40.4602 49.8369 39.5822 51.9565 39.5822 54.1667C39.5822 56.3768 40.4602 58.4964 42.023 60.0592C43.5858 61.622 45.7054 62.5 47.9156 62.5V70.8333C46.1031 70.8333 44.5593 69.6771 43.9843 68.0562C43.899 67.7911 43.7614 67.5457 43.5796 67.3346C43.3978 67.1236 43.1755 66.9511 42.9259 66.8275C42.6763 66.7038 42.4044 66.6315 42.1263 66.6147C41.8483 66.598 41.5697 66.6371 41.307 66.7299C41.0444 66.8227 40.803 66.9673 40.5972 67.155C40.3914 67.3427 40.2253 67.5698 40.1088 67.8228C39.9922 68.0758 39.9276 68.3496 39.9188 68.628C39.9099 68.9065 39.957 69.1838 40.0572 69.4437C40.6316 71.0689 41.6958 72.4759 43.1032 73.471C44.5106 74.4661 46.1919 75.0003 47.9156 75V77.0833H52.0822V75C54.2924 75 56.412 74.122 57.9748 72.5592C59.5376 70.9964 60.4156 68.8768 60.4156 66.6667C60.4156 64.4565 59.5376 62.3369 57.9748 60.7741C56.412 59.2113 54.2924 58.3333 52.0822 58.3333V50C53.8947 50 55.4385 51.1562 56.0135 52.7771C56.0988 53.0423 56.2364 53.2876 56.4182 53.4987C56.6 53.7098 56.8223 53.8822 57.0719 54.0059C57.3215 54.1295 57.5934 54.2019 57.8714 54.2186C58.1495 54.2354 58.4281 54.1962 58.6907 54.1034C58.9534 54.0106 59.1947 53.8661 59.4006 53.6784C59.6064 53.4906 59.7725 53.2636 59.889 53.0105C60.0055 52.7575 60.0701 52.4837 60.079 52.2053C60.0878 51.9269 60.0408 51.6495 59.9405 51.3896C59.3661 49.7645 58.302 48.3574 56.8946 47.3624C55.4872 46.3673 53.8059 45.8331 52.0822 45.8333ZM52.0822 62.5V70.8333C53.1873 70.8333 54.2471 70.3943 55.0285 69.6129C55.8099 68.8315 56.2489 67.7717 56.2489 66.6667C56.2489 65.5616 55.8099 64.5018 55.0285 63.7204C54.2471 62.939 53.1873 62.5 52.0822 62.5Z" fill="#33C060"/>
</svg>
