<svg width="27" height="27" viewBox="0 0 27 27" fill="none" xmlns="http://www.w3.org/2000/svg">
<path d="M0 1.15714C0 0.85025 0.121913 0.555926 0.338919 0.338919C0.555926 0.121913 0.85025 0 1.15714 0H2.01806C3.48377 0 4.3632 0.985885 4.86463 1.90234C5.19943 2.51331 5.44166 3.22149 5.63143 3.86331L5.78571 3.85714H25.0683C26.3489 3.85714 27.2746 5.08217 26.9229 6.31491L24.1025 16.2031C23.8496 17.09 23.3147 17.8704 22.5786 18.426C21.8425 18.9817 20.9455 19.2824 20.0232 19.2826H10.8463C9.91671 19.2827 9.01284 18.9774 8.27361 18.4138C7.53438 17.8502 7.00071 17.0594 6.75463 16.163L5.58206 11.8862L3.63806 5.33211L3.63651 5.31977C3.39583 4.44497 3.17057 3.62571 2.83423 3.01474C2.51177 2.42074 2.25257 2.31429 2.0196 2.31429H1.15714C0.85025 2.31429 0.555926 2.19237 0.338919 1.97537C0.121913 1.75836 0 1.46404 0 1.15714ZM10.0286 27C10.847 27 11.6318 26.6749 12.2105 26.0962C12.7892 25.5175 13.1143 24.7327 13.1143 23.9143C13.1143 23.0959 12.7892 22.311 12.2105 21.7324C11.6318 21.1537 10.847 20.8286 10.0286 20.8286C9.21019 20.8286 8.42533 21.1537 7.84664 21.7324C7.26796 22.311 6.94286 23.0959 6.94286 23.9143C6.94286 24.7327 7.26796 25.5175 7.84664 26.0962C8.42533 26.6749 9.21019 27 10.0286 27ZM20.8286 27C21.647 27 22.4318 26.6749 23.0105 26.0962C23.5892 25.5175 23.9143 24.7327 23.9143 23.9143C23.9143 23.0959 23.5892 22.311 23.0105 21.7324C22.4318 21.1537 21.647 20.8286 20.8286 20.8286C20.0102 20.8286 19.2253 21.1537 18.6466 21.7324C18.068 22.311 17.7429 23.0959 17.7429 23.9143C17.7429 24.7327 18.068 25.5175 18.6466 26.0962C19.2253 26.6749 20.0102 27 20.8286 27Z" fill="#33C060"/>
</svg>
