<svg width="34" height="34" viewBox="0 0 34 34" fill="none" xmlns="http://www.w3.org/2000/svg">
<circle cx="17" cy="17" r="16.5" stroke="#D9D9D9"/>
<path d="M19.2247 8C18.0148 8 16.8546 8.4806 15.9991 9.33607C15.1436 10.1915 14.663 11.3518 14.663 12.5616V15.1014H12.2219C12.0996 15.1014 12 15.2 12 15.3233V18.6767C12 18.799 12.0986 18.8986 12.2219 18.8986H14.663V25.7781C14.663 25.9004 14.7616 26 14.8849 26H18.2384C18.3607 26 18.4603 25.9014 18.4603 25.7781V18.8986H20.9231C21.0247 18.8986 21.1134 18.8296 21.1381 18.731L21.9764 15.3775C21.9847 15.3448 21.9854 15.3106 21.9784 15.2776C21.9715 15.2446 21.9571 15.2136 21.9364 15.187C21.9156 15.1603 21.8891 15.1388 21.8588 15.1239C21.8285 15.1091 21.7952 15.1014 21.7614 15.1014H18.4603V12.5616C18.4603 12.4613 18.48 12.3619 18.5185 12.2691C18.5569 12.1764 18.6132 12.0921 18.6842 12.0211C18.7551 11.9502 18.8394 11.8939 18.9321 11.8554C19.0249 11.817 19.1243 11.7973 19.2247 11.7973H21.789C21.9113 11.7973 22.011 11.6986 22.011 11.5753V8.22192C22.011 8.09962 21.9123 8 21.789 8H19.2247Z" fill="#696B6B"/>
</svg>
